{
	"patcher" : 	{
		"fileversion" : 1,
		"appversion" : 		{
			"major" : 9,
			"minor" : 0,
			"revision" : 7,
			"architecture" : "x64",
			"modernui" : 1
		}
,
		"classnamespace" : "box",
		"rect" : [ 34.0, 100.0, 1660.0, 983.0 ],
		"gridsize" : [ 15.0, 15.0 ],
		"boxes" : [ 			{
				"box" : 				{
					"id" : "obj-6",
					"maxclass" : "newobj",
					"numinlets" : 2,
					"numoutlets" : 2,
					"outlettype" : [ "", "" ],
					"patching_rect" : [ 584.0, 964.0, 59.0, 22.0 ],
					"text" : "route env"
				}

			}
, 			{
				"box" : 				{
					"id" : "obj-14",
					"maxclass" : "newobj",
					"numinlets" : 2,
					"numoutlets" : 2,
					"outlettype" : [ "", "" ],
					"patching_rect" : [ 1978.0, 1410.0, 74.0, 22.0 ],
					"text" : "route stopall"
				}

			}
, 			{
				"box" : 				{
					"id" : "obj-1",
					"maxclass" : "newobj",
					"numinlets" : 1,
					"numoutlets" : 0,
					"patching_rect" : [ 1048.333333333333485, 1310.0, 42.0, 22.0 ],
					"saved_object_attributes" : 					{
						"attr_comment" : ""
					}
,
					"text" : "out~ 3"
				}

			}
, 			{
				"box" : 				{
					"id" : "obj-27",
					"maxclass" : "newobj",
					"numinlets" : 1,
					"numoutlets" : 1,
					"outlettype" : [ "signal" ],
					"patching_rect" : [ 1053.178269123037808, 893.0, 31.0, 22.0 ],
					"text" : "sig~"
				}

			}
, 			{
				"box" : 				{
					"id" : "obj-26",
					"maxclass" : "newobj",
					"numinlets" : 1,
					"numoutlets" : 1,
					"outlettype" : [ "signal" ],
					"patching_rect" : [ 892.333333333333371, 893.0, 31.0, 22.0 ],
					"text" : "sig~"
				}

			}
, 			{
				"box" : 				{
					"id" : "obj-25",
					"maxclass" : "newobj",
					"numinlets" : 3,
					"numoutlets" : 3,
					"outlettype" : [ "signal", "signal", "signal" ],
					"patching_rect" : [ 748.333333333333485, 1010.0, 319.0, 22.0 ],
					"text" : "gen~ granulator_gen"
				}

			}
, 			{
				"box" : 				{
					"id" : "obj-22",
					"maxclass" : "newobj",
					"numinlets" : 1,
					"numoutlets" : 2,
					"outlettype" : [ "bang", "clear" ],
					"patching_rect" : [ 1978.0, 1442.0, 51.0, 22.0 ],
					"text" : "t b clear"
				}

			}
, 			{
				"box" : 				{
					"id" : "obj-21",
					"maxclass" : "newobj",
					"numinlets" : 0,
					"numoutlets" : 1,
					"outlettype" : [ "" ],
					"patching_rect" : [ 1978.0, 1377.0, 213.0, 22.0 ],
					"text" : "r #1Mosaique_GranulPlayer_Params"
				}

			}
, 			{
				"box" : 				{
					"id" : "obj-20",
					"maxclass" : "newobj",
					"numinlets" : 2,
					"numoutlets" : 2,
					"outlettype" : [ "", "" ],
					"patching_rect" : [ 1031.666666666666742, 790.0, 38.0, 22.0 ],
					"text" : "zl.reg"
				}

			}
, 			{
				"box" : 				{
					"id" : "obj-9",
					"maxclass" : "newobj",
					"numinlets" : 1,
					"numoutlets" : 2,
					"outlettype" : [ "", "" ],
					"patching_rect" : [ 754.0, 666.0, 176.333333333333371, 22.0 ],
					"text" : "t l l"
				}

			}
, 			{
				"box" : 				{
					"id" : "obj-5",
					"maxclass" : "newobj",
					"numinlets" : 1,
					"numoutlets" : 3,
					"outlettype" : [ "bang", "int", "signal" ],
					"patcher" : 					{
						"fileversion" : 1,
						"appversion" : 						{
							"major" : 9,
							"minor" : 0,
							"revision" : 7,
							"architecture" : "x64",
							"modernui" : 1
						}
,
						"classnamespace" : "box",
						"rect" : [ 34.0, 100.0, 1660.0, 983.0 ],
						"gridsize" : [ 15.0, 15.0 ],
						"boxes" : [ 							{
								"box" : 								{
									"id" : "obj-80",
									"maxclass" : "newobj",
									"numinlets" : 1,
									"numoutlets" : 3,
									"outlettype" : [ "bang", "int", "signal" ],
									"patcher" : 									{
										"fileversion" : 1,
										"appversion" : 										{
											"major" : 9,
											"minor" : 0,
											"revision" : 7,
											"architecture" : "x64",
											"modernui" : 1
										}
,
										"classnamespace" : "box",
										"rect" : [ 34.0, 109.0, 1660.0, 974.0 ],
										"gridsize" : [ 15.0, 15.0 ],
										"boxes" : [ 											{
												"box" : 												{
													"id" : "obj-10",
													"maxclass" : "newobj",
													"numinlets" : 1,
													"numoutlets" : 2,
													"outlettype" : [ "bang", "float" ],
													"patching_rect" : [ 264.0, 417.0, 29.5, 22.0 ],
													"text" : "t b f"
												}

											}
, 											{
												"box" : 												{
													"id" : "obj-9",
													"maxclass" : "newobj",
													"numinlets" : 2,
													"numoutlets" : 1,
													"outlettype" : [ "float" ],
													"patching_rect" : [ 264.0, 385.0, 29.5, 22.0 ],
													"text" : "!/ 1."
												}

											}
, 											{
												"box" : 												{
													"id" : "obj-6",
													"maxclass" : "newobj",
													"numinlets" : 2,
													"numoutlets" : 1,
													"outlettype" : [ "float" ],
													"patching_rect" : [ 691.0, 479.0, 29.5, 22.0 ],
													"text" : "* 1."
												}

											}
, 											{
												"box" : 												{
													"id" : "obj-106",
													"maxclass" : "newobj",
													"numinlets" : 0,
													"numoutlets" : 1,
													"outlettype" : [ "" ],
													"patching_rect" : [ 102.0, 196.0, 213.0, 22.0 ],
													"text" : "r #1Mosaique_GranulPlayer_Params"
												}

											}
, 											{
												"box" : 												{
													"id" : "obj-70",
													"maxclass" : "newobj",
													"numinlets" : 2,
													"numoutlets" : 2,
													"outlettype" : [ "", "" ],
													"patching_rect" : [ 402.0, 336.0, 42.0, 22.0 ],
													"text" : "gate 2"
												}

											}
, 											{
												"box" : 												{
													"id" : "obj-69",
													"maxclass" : "newobj",
													"numinlets" : 2,
													"numoutlets" : 1,
													"outlettype" : [ "float" ],
													"patching_rect" : [ 425.0, 297.0, 29.5, 22.0 ],
													"text" : "f"
												}

											}
, 											{
												"box" : 												{
													"id" : "obj-68",
													"maxclass" : "newobj",
													"numinlets" : 2,
													"numoutlets" : 1,
													"outlettype" : [ "int" ],
													"patching_rect" : [ 141.0, 297.0, 29.5, 22.0 ],
													"text" : "+ 1"
												}

											}
, 											{
												"box" : 												{
													"id" : "obj-37",
													"maxclass" : "newobj",
													"numinlets" : 1,
													"numoutlets" : 3,
													"outlettype" : [ "bang", "int", "int" ],
													"patching_rect" : [ 102.0, 257.0, 96.0, 22.0 ],
													"text" : "t b i i"
												}

											}
, 											{
												"box" : 												{
													"id" : "obj-5",
													"maxclass" : "newobj",
													"numinlets" : 2,
													"numoutlets" : 1,
													"outlettype" : [ "float" ],
													"patching_rect" : [ 264.0, 297.0, 29.5, 22.0 ],
													"text" : "f"
												}

											}
, 											{
												"box" : 												{
													"id" : "obj-28",
													"maxclass" : "newobj",
													"numinlets" : 2,
													"numoutlets" : 2,
													"outlettype" : [ "", "" ],
													"patching_rect" : [ 241.0, 336.0, 42.0, 22.0 ],
													"text" : "gate 2"
												}

											}
, 											{
												"box" : 												{
													"id" : "obj-14",
													"maxclass" : "newobj",
													"numinlets" : 4,
													"numoutlets" : 4,
													"outlettype" : [ "", "", "", "" ],
													"patching_rect" : [ 102.0, 229.0, 503.5, 22.0 ],
													"text" : "route transpo_link pitch speed"
												}

											}
, 											{
												"box" : 												{
													"id" : "obj-36",
													"maxclass" : "comment",
													"numinlets" : 1,
													"numoutlets" : 0,
													"patching_rect" : [ 1012.0, 139.0, 58.0, 20.0 ],
													"text" : "Retrigger"
												}

											}
, 											{
												"box" : 												{
													"id" : "obj-35",
													"maxclass" : "comment",
													"numinlets" : 1,
													"numoutlets" : 0,
													"patching_rect" : [ 665.0, 157.0, 46.0, 20.0 ],
													"text" : "Trigger"
												}

											}
, 											{
												"box" : 												{
													"id" : "obj-8",
													"maxclass" : "newobj",
													"numinlets" : 1,
													"numoutlets" : 2,
													"outlettype" : [ "signal", "float" ],
													"patching_rect" : [ 704.0, 406.0, 77.0, 22.0 ],
													"text" : "sampstoms~"
												}

											}
, 											{
												"box" : 												{
													"id" : "obj-7",
													"maxclass" : "newobj",
													"numinlets" : 1,
													"numoutlets" : 2,
													"outlettype" : [ "bang", "float" ],
													"patching_rect" : [ 653.0, 376.0, 70.0, 22.0 ],
													"text" : "t b f"
												}

											}
, 											{
												"box" : 												{
													"id" : "obj-3",
													"maxclass" : "newobj",
													"numinlets" : 1,
													"numoutlets" : 1,
													"outlettype" : [ "signal" ],
													"patching_rect" : [ 653.0, 406.0, 39.0, 22.0 ],
													"text" : "click~"
												}

											}
, 											{
												"box" : 												{
													"id" : "obj-2",
													"linecount" : 2,
													"maxclass" : "newobj",
													"numinlets" : 4,
													"numoutlets" : 2,
													"outlettype" : [ "signal", "bang" ],
													"patching_rect" : [ 653.333333333333371, 508.0, 132.0, 35.0 ],
													"text" : "ramp~ 5000 @mode 1 @retrigger 1"
												}

											}
, 											{
												"box" : 												{
													"id" : "obj-22",
													"maxclass" : "newobj",
													"numinlets" : 2,
													"numoutlets" : 1,
													"outlettype" : [ "float" ],
													"patching_rect" : [ 419.0, 590.0, 29.5, 22.0 ],
													"text" : "!- 1."
												}

											}
, 											{
												"box" : 												{
													"id" : "obj-21",
													"maxclass" : "newobj",
													"numinlets" : 1,
													"numoutlets" : 2,
													"outlettype" : [ "float", "float" ],
													"patching_rect" : [ 377.0, 564.0, 61.0, 22.0 ],
													"text" : "unpack f f"
												}

											}
, 											{
												"box" : 												{
													"id" : "obj-16",
													"maxclass" : "newobj",
													"numinlets" : 0,
													"numoutlets" : 1,
													"outlettype" : [ "" ],
													"patching_rect" : [ 377.0, 508.0, 213.0, 22.0 ],
													"text" : "r #1Mosaique_GranulPlayer_Params"
												}

											}
, 											{
												"box" : 												{
													"id" : "obj-17",
													"maxclass" : "newobj",
													"numinlets" : 2,
													"numoutlets" : 2,
													"outlettype" : [ "", "" ],
													"patching_rect" : [ 377.0, 538.0, 59.0, 22.0 ],
													"text" : "route env"
												}

											}
, 											{
												"box" : 												{
													"id" : "obj-4",
													"maxclass" : "newobj",
													"numinlets" : 1,
													"numoutlets" : 1,
													"outlettype" : [ "int" ],
													"patching_rect" : [ 1205.0, 590.0, 19.0, 22.0 ],
													"text" : "t i"
												}

											}
, 											{
												"box" : 												{
													"id" : "obj-139",
													"maxclass" : "newobj",
													"numinlets" : 1,
													"numoutlets" : 3,
													"outlettype" : [ "bang", "bang", "" ],
													"patching_rect" : [ 986.0, 172.0, 153.0, 22.0 ],
													"text" : "t b b l"
												}

											}
, 											{
												"box" : 												{
													"id" : "obj-137",
													"maxclass" : "newobj",
													"numinlets" : 3,
													"numoutlets" : 1,
													"outlettype" : [ "signal" ],
													"patching_rect" : [ 653.0, 760.0, 60.0, 22.0 ],
													"text" : "clip~ 0. 1."
												}

											}
, 											{
												"box" : 												{
													"id" : "obj-135",
													"maxclass" : "newobj",
													"numinlets" : 2,
													"numoutlets" : 2,
													"outlettype" : [ "", "" ],
													"patching_rect" : [ 1101.0, 257.0, 38.0, 22.0 ],
													"text" : "zl.reg"
												}

											}
, 											{
												"box" : 												{
													"id" : "obj-134",
													"maxclass" : "newobj",
													"numinlets" : 1,
													"numoutlets" : 2,
													"outlettype" : [ "float", "bang" ],
													"patching_rect" : [ 1001.0, 682.0, 35.0, 22.0 ],
													"text" : "t 0. b"
												}

											}
, 											{
												"box" : 												{
													"id" : "obj-131",
													"maxclass" : "newobj",
													"numinlets" : 2,
													"numoutlets" : 2,
													"outlettype" : [ "signal", "bang" ],
													"patching_rect" : [ 986.0, 642.0, 34.0, 22.0 ],
													"text" : "line~"
												}

											}
, 											{
												"box" : 												{
													"id" : "obj-130",
													"maxclass" : "message",
													"numinlets" : 2,
													"numoutlets" : 1,
													"outlettype" : [ "" ],
													"patching_rect" : [ 986.0, 310.0, 56.0, 22.0 ],
													"text" : "0., -1. 20"
												}

											}
, 											{
												"box" : 												{
													"id" : "obj-128",
													"maxclass" : "newobj",
													"numinlets" : 2,
													"numoutlets" : 1,
													"outlettype" : [ "int" ],
													"patching_rect" : [ 799.5, 590.0, 29.5, 22.0 ],
													"text" : "+ 1"
												}

											}
, 											{
												"box" : 												{
													"id" : "obj-127",
													"maxclass" : "newobj",
													"numinlets" : 2,
													"numoutlets" : 2,
													"outlettype" : [ "", "" ],
													"patching_rect" : [ 653.0, 133.0, 352.0, 22.0 ],
													"text" : "gate 2 1"
												}

											}
, 											{
												"box" : 												{
													"id" : "obj-125",
													"maxclass" : "newobj",
													"numinlets" : 2,
													"numoutlets" : 1,
													"outlettype" : [ "signal" ],
													"patching_rect" : [ 653.0, 722.0, 29.5, 22.0 ],
													"text" : "+~"
												}

											}
, 											{
												"box" : 												{
													"id" : "obj-123",
													"maxclass" : "newobj",
													"numinlets" : 2,
													"numoutlets" : 1,
													"outlettype" : [ "int" ],
													"patching_rect" : [ 653.0, 340.0, 29.5, 22.0 ],
													"text" : "!-"
												}

											}
, 											{
												"box" : 												{
													"id" : "obj-122",
													"maxclass" : "newobj",
													"numinlets" : 1,
													"numoutlets" : 1,
													"outlettype" : [ "int" ],
													"patching_rect" : [ 766.333333333333371, 548.0, 22.0, 22.0 ],
													"text" : "t 0"
												}

											}
, 											{
												"box" : 												{
													"id" : "obj-113",
													"maxclass" : "newobj",
													"numinlets" : 3,
													"numoutlets" : 1,
													"outlettype" : [ "signal" ],
													"patching_rect" : [ 653.0, 646.0, 105.0, 22.0 ],
													"text" : "trapezoid~ 0.2 0.8"
												}

											}
, 											{
												"box" : 												{
													"id" : "obj-84",
													"maxclass" : "newobj",
													"numinlets" : 1,
													"numoutlets" : 3,
													"outlettype" : [ "", "int", "bang" ],
													"patching_rect" : [ 653.0, 310.0, 312.0, 22.0 ],
													"text" : "t l 1 b"
												}

											}
, 											{
												"box" : 												{
													"id" : "obj-138",
													"maxclass" : "message",
													"numinlets" : 2,
													"numoutlets" : 1,
													"outlettype" : [ "" ],
													"patching_rect" : [ 1053.0, 310.0, 31.0, 22.0 ],
													"text" : "stop"
												}

											}
, 											{
												"box" : 												{
													"comment" : "",
													"id" : "obj-76",
													"index" : 1,
													"maxclass" : "inlet",
													"numinlets" : 0,
													"numoutlets" : 1,
													"outlettype" : [ "" ],
													"patching_rect" : [ 986.0, 61.0, 30.0, 30.0 ]
												}

											}
, 											{
												"box" : 												{
													"comment" : "",
													"id" : "obj-77",
													"index" : 1,
													"maxclass" : "outlet",
													"numinlets" : 1,
													"numoutlets" : 0,
													"patching_rect" : [ 935.0, 842.0, 30.0, 30.0 ]
												}

											}
, 											{
												"box" : 												{
													"comment" : "",
													"id" : "obj-78",
													"index" : 3,
													"maxclass" : "outlet",
													"numinlets" : 1,
													"numoutlets" : 0,
													"patching_rect" : [ 1374.0, 842.0, 30.0, 30.0 ]
												}

											}
, 											{
												"box" : 												{
													"comment" : "",
													"id" : "obj-79",
													"index" : 2,
													"maxclass" : "outlet",
													"numinlets" : 1,
													"numoutlets" : 0,
													"patching_rect" : [ 1205.0, 842.0, 30.0, 30.0 ]
												}

											}
 ],
										"lines" : [ 											{
												"patchline" : 												{
													"destination" : [ "obj-6", 1 ],
													"source" : [ "obj-10", 1 ]
												}

											}
, 											{
												"patchline" : 												{
													"destination" : [ "obj-6", 0 ],
													"source" : [ "obj-10", 0 ]
												}

											}
, 											{
												"patchline" : 												{
													"destination" : [ "obj-14", 0 ],
													"source" : [ "obj-106", 0 ]
												}

											}
, 											{
												"patchline" : 												{
													"destination" : [ "obj-125", 0 ],
													"source" : [ "obj-113", 0 ]
												}

											}
, 											{
												"patchline" : 												{
													"destination" : [ "obj-128", 0 ],
													"midpoints" : [ 775.833333333333371, 577.5, 809.0, 577.5 ],
													"order" : 1,
													"source" : [ "obj-122", 0 ]
												}

											}
, 											{
												"patchline" : 												{
													"destination" : [ "obj-4", 0 ],
													"midpoints" : [ 775.833333333333371, 578.0, 1214.5, 578.0 ],
													"order" : 0,
													"source" : [ "obj-122", 0 ]
												}

											}
, 											{
												"patchline" : 												{
													"destination" : [ "obj-7", 0 ],
													"source" : [ "obj-123", 0 ]
												}

											}
, 											{
												"patchline" : 												{
													"destination" : [ "obj-137", 0 ],
													"source" : [ "obj-125", 0 ]
												}

											}
, 											{
												"patchline" : 												{
													"destination" : [ "obj-139", 0 ],
													"source" : [ "obj-127", 1 ]
												}

											}
, 											{
												"patchline" : 												{
													"destination" : [ "obj-84", 0 ],
													"source" : [ "obj-127", 0 ]
												}

											}
, 											{
												"patchline" : 												{
													"destination" : [ "obj-127", 0 ],
													"midpoints" : [ 809.0, 620.5, 622.75, 620.5, 622.75, 122.5, 662.5, 122.5 ],
													"source" : [ "obj-128", 0 ]
												}

											}
, 											{
												"patchline" : 												{
													"destination" : [ "obj-131", 0 ],
													"source" : [ "obj-130", 0 ]
												}

											}
, 											{
												"patchline" : 												{
													"destination" : [ "obj-125", 1 ],
													"source" : [ "obj-131", 0 ]
												}

											}
, 											{
												"patchline" : 												{
													"destination" : [ "obj-134", 0 ],
													"source" : [ "obj-131", 1 ]
												}

											}
, 											{
												"patchline" : 												{
													"destination" : [ "obj-131", 0 ],
													"midpoints" : [ 1010.5, 713.5, 973.75, 713.5, 973.75, 630.5, 995.5, 630.5 ],
													"source" : [ "obj-134", 0 ]
												}

											}
, 											{
												"patchline" : 												{
													"destination" : [ "obj-135", 0 ],
													"midpoints" : [ 1026.5, 721.5, 1152.25, 721.5, 1152.25, 242.5, 1110.5, 242.5 ],
													"source" : [ "obj-134", 1 ]
												}

											}
, 											{
												"patchline" : 												{
													"destination" : [ "obj-84", 0 ],
													"source" : [ "obj-135", 0 ]
												}

											}
, 											{
												"patchline" : 												{
													"destination" : [ "obj-78", 0 ],
													"source" : [ "obj-137", 0 ]
												}

											}
, 											{
												"patchline" : 												{
													"destination" : [ "obj-130", 0 ],
													"source" : [ "obj-139", 0 ]
												}

											}
, 											{
												"patchline" : 												{
													"destination" : [ "obj-135", 1 ],
													"source" : [ "obj-139", 2 ]
												}

											}
, 											{
												"patchline" : 												{
													"destination" : [ "obj-138", 0 ],
													"source" : [ "obj-139", 1 ]
												}

											}
, 											{
												"patchline" : 												{
													"destination" : [ "obj-37", 0 ],
													"source" : [ "obj-14", 0 ]
												}

											}
, 											{
												"patchline" : 												{
													"destination" : [ "obj-5", 0 ],
													"source" : [ "obj-14", 1 ]
												}

											}
, 											{
												"patchline" : 												{
													"destination" : [ "obj-69", 0 ],
													"source" : [ "obj-14", 2 ]
												}

											}
, 											{
												"patchline" : 												{
													"destination" : [ "obj-17", 0 ],
													"source" : [ "obj-16", 0 ]
												}

											}
, 											{
												"patchline" : 												{
													"destination" : [ "obj-21", 0 ],
													"source" : [ "obj-17", 0 ]
												}

											}
, 											{
												"patchline" : 												{
													"destination" : [ "obj-113", 0 ],
													"source" : [ "obj-2", 0 ]
												}

											}
, 											{
												"patchline" : 												{
													"destination" : [ "obj-122", 0 ],
													"source" : [ "obj-2", 1 ]
												}

											}
, 											{
												"patchline" : 												{
													"color" : [ 0.290757298469543, 0.0, 0.700836360454559, 1.0 ],
													"destination" : [ "obj-113", 1 ],
													"midpoints" : [ 386.5, 634.5, 705.5, 634.5 ],
													"source" : [ "obj-21", 0 ]
												}

											}
, 											{
												"patchline" : 												{
													"destination" : [ "obj-22", 0 ],
													"source" : [ "obj-21", 1 ]
												}

											}
, 											{
												"patchline" : 												{
													"color" : [ 0.206053525209427, 0.0, 0.700772643089294, 1.0 ],
													"destination" : [ "obj-113", 2 ],
													"midpoints" : [ 428.5, 628.0, 748.5, 628.0 ],
													"source" : [ "obj-22", 0 ]
												}

											}
, 											{
												"patchline" : 												{
													"destination" : [ "obj-9", 0 ],
													"source" : [ "obj-28", 1 ]
												}

											}
, 											{
												"patchline" : 												{
													"destination" : [ "obj-2", 0 ],
													"source" : [ "obj-3", 0 ]
												}

											}
, 											{
												"patchline" : 												{
													"destination" : [ "obj-5", 0 ],
													"midpoints" : [ 111.5, 287.0, 273.5, 287.0 ],
													"order" : 1,
													"source" : [ "obj-37", 0 ]
												}

											}
, 											{
												"patchline" : 												{
													"destination" : [ "obj-68", 0 ],
													"source" : [ "obj-37", 1 ]
												}

											}
, 											{
												"patchline" : 												{
													"destination" : [ "obj-69", 0 ],
													"midpoints" : [ 111.5, 287.0, 434.5, 287.0 ],
													"order" : 0,
													"source" : [ "obj-37", 0 ]
												}

											}
, 											{
												"patchline" : 												{
													"destination" : [ "obj-79", 0 ],
													"source" : [ "obj-4", 0 ]
												}

											}
, 											{
												"patchline" : 												{
													"destination" : [ "obj-28", 1 ],
													"source" : [ "obj-5", 0 ]
												}

											}
, 											{
												"patchline" : 												{
													"destination" : [ "obj-2", 1 ],
													"source" : [ "obj-6", 0 ]
												}

											}
, 											{
												"patchline" : 												{
													"destination" : [ "obj-28", 0 ],
													"midpoints" : [ 150.5, 326.445587605237961, 250.5, 326.445587605237961 ],
													"order" : 1,
													"source" : [ "obj-68", 0 ]
												}

											}
, 											{
												"patchline" : 												{
													"destination" : [ "obj-70", 0 ],
													"midpoints" : [ 150.5, 327.0, 411.5, 327.0 ],
													"order" : 0,
													"source" : [ "obj-68", 0 ]
												}

											}
, 											{
												"patchline" : 												{
													"destination" : [ "obj-70", 1 ],
													"source" : [ "obj-69", 0 ]
												}

											}
, 											{
												"patchline" : 												{
													"destination" : [ "obj-3", 0 ],
													"source" : [ "obj-7", 0 ]
												}

											}
, 											{
												"patchline" : 												{
													"destination" : [ "obj-8", 0 ],
													"source" : [ "obj-7", 1 ]
												}

											}
, 											{
												"patchline" : 												{
													"destination" : [ "obj-9", 0 ],
													"source" : [ "obj-70", 1 ]
												}

											}
, 											{
												"patchline" : 												{
													"destination" : [ "obj-9", 0 ],
													"source" : [ "obj-70", 0 ]
												}

											}
, 											{
												"patchline" : 												{
													"destination" : [ "obj-127", 1 ],
													"source" : [ "obj-76", 0 ]
												}

											}
, 											{
												"patchline" : 												{
													"destination" : [ "obj-6", 0 ],
													"midpoints" : [ 771.5, 435.058823347091675, 700.5, 435.058823347091675 ],
													"source" : [ "obj-8", 1 ]
												}

											}
, 											{
												"patchline" : 												{
													"destination" : [ "obj-123", 0 ],
													"source" : [ "obj-84", 0 ]
												}

											}
, 											{
												"patchline" : 												{
													"destination" : [ "obj-128", 0 ],
													"order" : 1,
													"source" : [ "obj-84", 1 ]
												}

											}
, 											{
												"patchline" : 												{
													"destination" : [ "obj-4", 0 ],
													"order" : 0,
													"source" : [ "obj-84", 1 ]
												}

											}
, 											{
												"patchline" : 												{
													"destination" : [ "obj-77", 0 ],
													"source" : [ "obj-84", 2 ]
												}

											}
, 											{
												"patchline" : 												{
													"destination" : [ "obj-10", 0 ],
													"source" : [ "obj-9", 0 ]
												}

											}
 ],
										"patchlinecolor" : [ 0.690196078431373, 0.709803921568627, 0.63921568627451, 1.0 ],
										"bgcolor" : [ 0.149019607843137, 0.219607843137255, 0.247058823529412, 1.0 ],
										"editing_bgcolor" : [ 0.149019607843137, 0.219607843137255, 0.247058823529412, 1.0 ]
									}
,
									"patching_rect" : [ 580.0, 389.215710401535034, 93.0, 22.0 ],
									"saved_object_attributes" : 									{
										"editing_bgcolor" : [ 0.149019607843137, 0.219607843137255, 0.247058823529412, 1.0 ],
										"locked_bgcolor" : [ 0.149019607843137, 0.219607843137255, 0.247058823529412, 1.0 ],
										"patchlinecolor" : [ 0.690196078431373, 0.709803921568627, 0.63921568627451, 1.0 ]
									}
,
									"text" : "p Env_OneShot"
								}

							}
, 							{
								"box" : 								{
									"id" : "obj-75",
									"maxclass" : "newobj",
									"numinlets" : 1,
									"numoutlets" : 3,
									"outlettype" : [ "bang", "int", "signal" ],
									"patcher" : 									{
										"fileversion" : 1,
										"appversion" : 										{
											"major" : 9,
											"minor" : 0,
											"revision" : 7,
											"architecture" : "x64",
											"modernui" : 1
										}
,
										"classnamespace" : "box",
										"rect" : [ 84.0, 150.0, 1300.0, 897.0 ],
										"gridsize" : [ 15.0, 15.0 ],
										"boxes" : [ 											{
												"box" : 												{
													"id" : "obj-63",
													"maxclass" : "newobj",
													"numinlets" : 1,
													"numoutlets" : 3,
													"outlettype" : [ "int", "int", "bang" ],
													"patching_rect" : [ 67.975525140762329, 215.686281681060791, 42.0, 22.0 ],
													"text" : "t 1 0 b"
												}

											}
, 											{
												"box" : 												{
													"id" : "obj-61",
													"linecount" : 2,
													"maxclass" : "newobj",
													"numinlets" : 0,
													"numoutlets" : 1,
													"outlettype" : [ "" ],
													"patching_rect" : [ 67.975525140762329, 156.862748622894287, 206.0, 22.0 ],
													"text" : "r #1Mosaique_GranulPlayer_Params"
												}

											}
, 											{
												"box" : 												{
													"id" : "obj-62",
													"maxclass" : "newobj",
													"numinlets" : 2,
													"numoutlets" : 2,
													"outlettype" : [ "", "" ],
													"patching_rect" : [ 67.975525140762329, 188.235299587249756, 74.0, 22.0 ],
													"text" : "route stopall"
												}

											}
, 											{
												"box" : 												{
													"id" : "obj-60",
													"maxclass" : "newobj",
													"numinlets" : 1,
													"numoutlets" : 2,
													"outlettype" : [ "int", "int" ],
													"patching_rect" : [ 654.250071287155151, 388.235311985015869, 66.0, 22.0 ],
													"text" : "t i i"
												}

											}
, 											{
												"box" : 												{
													"id" : "obj-59",
													"maxclass" : "newobj",
													"numinlets" : 2,
													"numoutlets" : 1,
													"outlettype" : [ "int" ],
													"patching_rect" : [ 701.308897733688354, 451.960806131362915, 33.0, 22.0 ],
													"text" : "== 0"
												}

											}
, 											{
												"box" : 												{
													"id" : "obj-58",
													"maxclass" : "newobj",
													"numinlets" : 2,
													"numoutlets" : 1,
													"outlettype" : [ "float" ],
													"patching_rect" : [ 825.818709373474121, 263.725500345230103, 32.0, 22.0 ],
													"text" : "100."
												}

											}
, 											{
												"box" : 												{
													"id" : "obj-55",
													"maxclass" : "newobj",
													"numinlets" : 2,
													"numoutlets" : 1,
													"outlettype" : [ "float" ],
													"patching_rect" : [ 617.975559234619141, 263.725500345230103, 32.0, 22.0 ],
													"text" : "100."
												}

											}
, 											{
												"box" : 												{
													"id" : "obj-54",
													"maxclass" : "newobj",
													"numinlets" : 1,
													"numoutlets" : 3,
													"outlettype" : [ "int", "bang", "int" ],
													"patching_rect" : [ 641.504972457885742, 478.431396007537842, 42.0, 22.0 ],
													"text" : "t 1 b 0"
												}

											}
, 											{
												"box" : 												{
													"id" : "obj-53",
													"maxclass" : "newobj",
													"numinlets" : 6,
													"numoutlets" : 1,
													"outlettype" : [ "" ],
													"patching_rect" : [ 825.818709373474121, 209.803928375244141, 195.0, 22.0 ],
													"text" : "scale 0. 1. 10. 20000. 3 @classic 0"
												}

											}
, 											{
												"box" : 												{
													"id" : "obj-52",
													"maxclass" : "newobj",
													"numinlets" : 6,
													"numoutlets" : 1,
													"outlettype" : [ "" ],
													"patching_rect" : [ 617.975559234619141, 209.803928375244141, 188.0, 22.0 ],
													"text" : "scale 0. 1. 5. 10000. 3 @classic 0"
												}

											}
, 											{
												"box" : 												{
													"id" : "obj-44",
													"maxclass" : "newobj",
													"numinlets" : 1,
													"numoutlets" : 3,
													"outlettype" : [ "int", "int", "int" ],
													"patching_rect" : [ 404.25005578994751, 215.686281681060791, 55.0, 22.0 ],
													"text" : "t 0 1 100"
												}

											}
, 											{
												"box" : 												{
													"id" : "obj-43",
													"maxclass" : "newobj",
													"numinlets" : 2,
													"numoutlets" : 2,
													"outlettype" : [ "bang", "" ],
													"patching_rect" : [ 641.504972457885742, 451.960806131362915, 34.0, 22.0 ],
													"text" : "sel 1"
												}

											}
, 											{
												"box" : 												{
													"id" : "obj-42",
													"maxclass" : "newobj",
													"numinlets" : 2,
													"numoutlets" : 1,
													"outlettype" : [ "" ],
													"patching_rect" : [ 641.504972457885742, 425.490216255187988, 32.0, 22.0 ],
													"text" : "gate"
												}

											}
, 											{
												"box" : 												{
													"id" : "obj-41",
													"maxclass" : "newobj",
													"numinlets" : 2,
													"numoutlets" : 2,
													"outlettype" : [ "", "" ],
													"patching_rect" : [ 654.250071287155151, 360.784329891204834, 66.0, 22.0 ],
													"text" : "route mute"
												}

											}
, 											{
												"box" : 												{
													"id" : "obj-37",
													"maxclass" : "newobj",
													"numinlets" : 1,
													"numoutlets" : 4,
													"outlettype" : [ "int", "bang", "int", "bang" ],
													"patching_rect" : [ 312.09318733215332, 215.686281681060791, 52.0, 22.0 ],
													"text" : "t 1 b 2 b"
												}

											}
, 											{
												"box" : 												{
													"id" : "obj-33",
													"maxclass" : "newobj",
													"numinlets" : 2,
													"numoutlets" : 2,
													"outlettype" : [ "", "" ],
													"patching_rect" : [ 312.09318733215332, 180.392161846160889, 111.583341598510742, 22.0 ],
													"text" : "gate 2 1"
												}

											}
, 											{
												"box" : 												{
													"id" : "obj-23",
													"maxclass" : "newobj",
													"numinlets" : 1,
													"numoutlets" : 2,
													"outlettype" : [ "float", "float" ],
													"patching_rect" : [ 617.975559234619141, 173.52941632270813, 226.47060227394104, 22.0 ],
													"text" : "unpack f f"
												}

											}
, 											{
												"box" : 												{
													"id" : "obj-24",
													"linecount" : 2,
													"maxclass" : "newobj",
													"numinlets" : 0,
													"numoutlets" : 1,
													"outlettype" : [ "" ],
													"patching_rect" : [ 617.975559234619141, 100.0, 206.0, 22.0 ],
													"text" : "r #1Mosaique_GranulPlayer_Params"
												}

											}
, 											{
												"box" : 												{
													"id" : "obj-25",
													"maxclass" : "newobj",
													"numinlets" : 2,
													"numoutlets" : 2,
													"outlettype" : [ "", "" ],
													"patching_rect" : [ 617.975559234619141, 138.235296487808228, 59.0, 22.0 ],
													"text" : "route env"
												}

											}
, 											{
												"box" : 												{
													"id" : "obj-19",
													"maxclass" : "newobj",
													"numinlets" : 5,
													"numoutlets" : 4,
													"outlettype" : [ "signal", "signal", "", "" ],
													"patching_rect" : [ 312.09318733215332, 324.509817838668823, 533.333366394042969, 22.0 ],
													"text" : "adsr~ 1000 0. 1. 1000."
												}

											}
, 											{
												"box" : 												{
													"comment" : "",
													"id" : "obj-71",
													"index" : 1,
													"maxclass" : "inlet",
													"numinlets" : 0,
													"numoutlets" : 1,
													"outlettype" : [ "" ],
													"patching_rect" : [ 404.093139999999948, 40.000001121917705, 30.0, 30.0 ]
												}

											}
, 											{
												"box" : 												{
													"comment" : "",
													"id" : "obj-72",
													"index" : 3,
													"maxclass" : "outlet",
													"numinlets" : 1,
													"numoutlets" : 0,
													"patching_rect" : [ 779.0, 662.0, 30.0, 30.0 ]
												}

											}
, 											{
												"box" : 												{
													"comment" : "",
													"id" : "obj-73",
													"index" : 1,
													"maxclass" : "outlet",
													"numinlets" : 1,
													"numoutlets" : 0,
													"patching_rect" : [ 653.004972457885742, 570.147035121917725, 30.0, 30.0 ]
												}

											}
, 											{
												"box" : 												{
													"comment" : "",
													"id" : "obj-74",
													"index" : 2,
													"maxclass" : "outlet",
													"numinlets" : 1,
													"numoutlets" : 0,
													"patching_rect" : [ 701.308837999999923, 570.147035121917725, 30.0, 30.0 ]
												}

											}
 ],
										"lines" : [ 											{
												"patchline" : 												{
													"destination" : [ "obj-41", 0 ],
													"source" : [ "obj-19", 2 ]
												}

											}
, 											{
												"patchline" : 												{
													"destination" : [ "obj-72", 0 ],
													"midpoints" : [ 321.59318733215332, 638.754908919334412, 788.5, 638.754908919334412 ],
													"source" : [ "obj-19", 0 ]
												}

											}
, 											{
												"patchline" : 												{
													"destination" : [ "obj-52", 0 ],
													"source" : [ "obj-23", 0 ]
												}

											}
, 											{
												"patchline" : 												{
													"destination" : [ "obj-53", 0 ],
													"source" : [ "obj-23", 1 ]
												}

											}
, 											{
												"patchline" : 												{
													"destination" : [ "obj-25", 0 ],
													"source" : [ "obj-24", 0 ]
												}

											}
, 											{
												"patchline" : 												{
													"destination" : [ "obj-23", 0 ],
													"source" : [ "obj-25", 0 ]
												}

											}
, 											{
												"patchline" : 												{
													"destination" : [ "obj-37", 0 ],
													"source" : [ "obj-33", 0 ]
												}

											}
, 											{
												"patchline" : 												{
													"destination" : [ "obj-44", 0 ],
													"source" : [ "obj-33", 1 ]
												}

											}
, 											{
												"patchline" : 												{
													"color" : [ 0.0, 0.940959930419922, 0.098472237586975, 1.0 ],
													"destination" : [ "obj-19", 0 ],
													"source" : [ "obj-37", 0 ]
												}

											}
, 											{
												"patchline" : 												{
													"destination" : [ "obj-33", 0 ],
													"source" : [ "obj-37", 2 ]
												}

											}
, 											{
												"patchline" : 												{
													"color" : [ 0.316331803798676, 0.0, 0.930384993553162, 1.0 ],
													"destination" : [ "obj-55", 0 ],
													"midpoints" : [ 332.59318733215332, 250.205891013145447, 627.475559234619141, 250.205891013145447 ],
													"order" : 1,
													"source" : [ "obj-37", 1 ]
												}

											}
, 											{
												"patchline" : 												{
													"color" : [ 0.316331803798676, 0.0, 0.930384993553162, 1.0 ],
													"destination" : [ "obj-58", 0 ],
													"midpoints" : [ 332.59318733215332, 250.205891013145447, 835.318709373474121, 250.205891013145447 ],
													"order" : 0,
													"source" : [ "obj-37", 1 ]
												}

											}
, 											{
												"patchline" : 												{
													"destination" : [ "obj-73", 0 ],
													"source" : [ "obj-37", 3 ]
												}

											}
, 											{
												"patchline" : 												{
													"destination" : [ "obj-60", 0 ],
													"source" : [ "obj-41", 0 ]
												}

											}
, 											{
												"patchline" : 												{
													"destination" : [ "obj-43", 0 ],
													"source" : [ "obj-42", 0 ]
												}

											}
, 											{
												"patchline" : 												{
													"destination" : [ "obj-54", 0 ],
													"source" : [ "obj-43", 0 ]
												}

											}
, 											{
												"patchline" : 												{
													"destination" : [ "obj-19", 4 ],
													"midpoints" : [ 449.75005578994751, 310.07842493057251, 835.926553726196289, 310.07842493057251 ],
													"order" : 0,
													"source" : [ "obj-44", 2 ]
												}

											}
, 											{
												"patchline" : 												{
													"destination" : [ "obj-19", 1 ],
													"order" : 1,
													"source" : [ "obj-44", 2 ]
												}

											}
, 											{
												"patchline" : 												{
													"color" : [ 0.0, 0.940959930419922, 0.098472237586975, 1.0 ],
													"destination" : [ "obj-19", 0 ],
													"source" : [ "obj-44", 0 ]
												}

											}
, 											{
												"patchline" : 												{
													"color" : [ 0.919711709022522, 0.776160657405853, 0.0, 1.0 ],
													"destination" : [ "obj-42", 0 ],
													"midpoints" : [ 431.75005578994751, 292.039190769195557, 895.380755742390875, 292.039190769195557, 895.380755742390875, 417.352915287017822, 651.004972457885742, 417.352915287017822 ],
													"source" : [ "obj-44", 1 ]
												}

											}
, 											{
												"patchline" : 												{
													"destination" : [ "obj-55", 0 ],
													"source" : [ "obj-52", 0 ]
												}

											}
, 											{
												"patchline" : 												{
													"destination" : [ "obj-58", 0 ],
													"source" : [ "obj-53", 0 ]
												}

											}
, 											{
												"patchline" : 												{
													"color" : [ 0.0, 0.940959930419922, 0.098472237586975, 1.0 ],
													"destination" : [ "obj-19", 0 ],
													"midpoints" : [ 651.004972457885742, 508.470611572265625, 291.449393828709844, 508.470611572265625, 291.449393828709844, 313.647035121917725, 321.59318733215332, 313.647035121917725 ],
													"source" : [ "obj-54", 0 ]
												}

											}
, 											{
												"patchline" : 												{
													"destination" : [ "obj-42", 0 ],
													"source" : [ "obj-54", 2 ]
												}

											}
, 											{
												"patchline" : 												{
													"destination" : [ "obj-73", 0 ],
													"source" : [ "obj-54", 1 ]
												}

											}
, 											{
												"patchline" : 												{
													"destination" : [ "obj-19", 1 ],
													"source" : [ "obj-55", 0 ]
												}

											}
, 											{
												"patchline" : 												{
													"destination" : [ "obj-19", 4 ],
													"source" : [ "obj-58", 0 ]
												}

											}
, 											{
												"patchline" : 												{
													"destination" : [ "obj-74", 0 ],
													"source" : [ "obj-59", 0 ]
												}

											}
, 											{
												"patchline" : 												{
													"destination" : [ "obj-42", 1 ],
													"source" : [ "obj-60", 0 ]
												}

											}
, 											{
												"patchline" : 												{
													"destination" : [ "obj-59", 0 ],
													"source" : [ "obj-60", 1 ]
												}

											}
, 											{
												"patchline" : 												{
													"destination" : [ "obj-62", 0 ],
													"source" : [ "obj-61", 0 ]
												}

											}
, 											{
												"patchline" : 												{
													"destination" : [ "obj-63", 0 ],
													"source" : [ "obj-62", 0 ]
												}

											}
, 											{
												"patchline" : 												{
													"color" : [ 0.0, 0.940959930419922, 0.098472237586975, 1.0 ],
													"destination" : [ "obj-19", 0 ],
													"source" : [ "obj-63", 1 ]
												}

											}
, 											{
												"patchline" : 												{
													"destination" : [ "obj-33", 0 ],
													"midpoints" : [ 77.475525140762329, 253.921578168869019, 51.949415524800543, 253.921578168869019, 51.949415524800543, 137.254904270172119, 321.59318733215332, 137.254904270172119 ],
													"source" : [ "obj-63", 0 ]
												}

											}
, 											{
												"patchline" : 												{
													"color" : [ 0.316331803798676, 0.0, 0.930384993553162, 1.0 ],
													"destination" : [ "obj-55", 0 ],
													"midpoints" : [ 100.475525140762329, 250.205891013145447, 627.475559234619141, 250.205891013145447 ],
													"order" : 1,
													"source" : [ "obj-63", 2 ]
												}

											}
, 											{
												"patchline" : 												{
													"color" : [ 0.316331803798676, 0.0, 0.930384993553162, 1.0 ],
													"destination" : [ "obj-58", 0 ],
													"midpoints" : [ 100.475525140762329, 250.205891013145447, 835.318709373474121, 250.205891013145447 ],
													"order" : 0,
													"source" : [ "obj-63", 2 ]
												}

											}
, 											{
												"patchline" : 												{
													"destination" : [ "obj-33", 1 ],
													"source" : [ "obj-71", 0 ]
												}

											}
 ],
										"patchlinecolor" : [ 0.690196078431373, 0.709803921568627, 0.63921568627451, 1.0 ],
										"bgcolor" : [ 0.149019607843137, 0.219607843137255, 0.247058823529412, 1.0 ],
										"editing_bgcolor" : [ 0.149019607843137, 0.219607843137255, 0.247058823529412, 1.0 ]
									}
,
									"patching_rect" : [ 729.627461433410645, 389.215710401535034, 73.0, 22.0 ],
									"saved_object_attributes" : 									{
										"editing_bgcolor" : [ 0.149019607843137, 0.219607843137255, 0.247058823529412, 1.0 ],
										"locked_bgcolor" : [ 0.149019607843137, 0.219607843137255, 0.247058823529412, 1.0 ],
										"patchlinecolor" : [ 0.690196078431373, 0.709803921568627, 0.63921568627451, 1.0 ]
									}
,
									"text" : "p Env_Loop"
								}

							}
, 							{
								"box" : 								{
									"id" : "obj-29",
									"maxclass" : "message",
									"numinlets" : 2,
									"numoutlets" : 1,
									"outlettype" : [ "" ],
									"patching_rect" : [ 2719.608011722564697, 1256.862823009490967, 50.0, 22.0 ]
								}

							}
, 							{
								"box" : 								{
									"id" : "obj-28",
									"maxclass" : "message",
									"numinlets" : 2,
									"numoutlets" : 1,
									"outlettype" : [ "" ],
									"patching_rect" : [ 1077.45104718208313, 1588.235392570495605, 50.0, 22.0 ]
								}

							}
, 							{
								"box" : 								{
									"id" : "obj-26",
									"maxclass" : "newobj",
									"numinlets" : 3,
									"numoutlets" : 1,
									"outlettype" : [ "signal" ],
									"patching_rect" : [ 892.745117425918579, 470.588264465332031, 463.887245178222656, 22.0 ],
									"text" : "selector~ 2 @ramptime 5"
								}

							}
, 							{
								"box" : 								{
									"id" : "obj-11",
									"maxclass" : "newobj",
									"numinlets" : 2,
									"numoutlets" : 1,
									"outlettype" : [ "int" ],
									"patching_rect" : [ 580.0, 285.0, 29.5, 22.0 ],
									"text" : "+ 1"
								}

							}
, 							{
								"box" : 								{
									"id" : "obj-9",
									"maxclass" : "newobj",
									"numinlets" : 0,
									"numoutlets" : 1,
									"outlettype" : [ "" ],
									"patching_rect" : [ 580.0, 226.0, 213.0, 22.0 ],
									"text" : "r #1Mosaique_GranulPlayer_Params"
								}

							}
, 							{
								"box" : 								{
									"id" : "obj-10",
									"maxclass" : "newobj",
									"numinlets" : 2,
									"numoutlets" : 2,
									"outlettype" : [ "", "" ],
									"patching_rect" : [ 580.0, 256.0, 62.0, 22.0 ],
									"text" : "route loop"
								}

							}
, 							{
								"box" : 								{
									"id" : "obj-15",
									"maxclass" : "newobj",
									"numinlets" : 2,
									"numoutlets" : 2,
									"outlettype" : [ "", "" ],
									"patching_rect" : [ 580.0, 336.0, 168.627461433410645, 22.0 ],
									"text" : "gate 2"
								}

							}
, 							{
								"box" : 								{
									"comment" : "Trigger of new sound params",
									"id" : "obj-1",
									"index" : 2,
									"maxclass" : "outlet",
									"numinlets" : 1,
									"numoutlets" : 0,
									"patching_rect" : [ 756.627461433410645, 534.313758611679077, 30.0, 30.0 ]
								}

							}
, 							{
								"box" : 								{
									"comment" : "Envelope out",
									"id" : "obj-143",
									"index" : 3,
									"maxclass" : "outlet",
									"numinlets" : 1,
									"numoutlets" : 0,
									"patching_rect" : [ 892.745117425918579, 534.313758611679077, 30.0, 30.0 ]
								}

							}
, 							{
								"box" : 								{
									"comment" : "Trigger of new sound params",
									"id" : "obj-142",
									"index" : 1,
									"maxclass" : "outlet",
									"numinlets" : 1,
									"numoutlets" : 0,
									"patching_rect" : [ 580.0, 534.313758611679077, 30.0, 30.0 ]
								}

							}
, 							{
								"box" : 								{
									"comment" : "Bounds in samples",
									"id" : "obj-140",
									"index" : 1,
									"maxclass" : "inlet",
									"numinlets" : 0,
									"numoutlets" : 1,
									"outlettype" : [ "" ],
									"patching_rect" : [ 729.627461433410645, 277.0, 30.0, 30.0 ]
								}

							}
 ],
						"lines" : [ 							{
								"patchline" : 								{
									"destination" : [ "obj-11", 0 ],
									"source" : [ "obj-10", 0 ]
								}

							}
, 							{
								"patchline" : 								{
									"destination" : [ "obj-15", 0 ],
									"order" : 1,
									"source" : [ "obj-11", 0 ]
								}

							}
, 							{
								"patchline" : 								{
									"destination" : [ "obj-26", 0 ],
									"midpoints" : [ 589.5, 325.490216255187988, 902.245117425918579, 325.490216255187988 ],
									"order" : 0,
									"source" : [ "obj-11", 0 ]
								}

							}
, 							{
								"patchline" : 								{
									"destination" : [ "obj-15", 1 ],
									"source" : [ "obj-140", 0 ]
								}

							}
, 							{
								"patchline" : 								{
									"destination" : [ "obj-75", 0 ],
									"source" : [ "obj-15", 1 ]
								}

							}
, 							{
								"patchline" : 								{
									"destination" : [ "obj-80", 0 ],
									"source" : [ "obj-15", 0 ]
								}

							}
, 							{
								"patchline" : 								{
									"destination" : [ "obj-143", 0 ],
									"source" : [ "obj-26", 0 ]
								}

							}
, 							{
								"patchline" : 								{
									"destination" : [ "obj-1", 0 ],
									"source" : [ "obj-75", 1 ]
								}

							}
, 							{
								"patchline" : 								{
									"destination" : [ "obj-142", 0 ],
									"source" : [ "obj-75", 0 ]
								}

							}
, 							{
								"patchline" : 								{
									"destination" : [ "obj-26", 2 ],
									"source" : [ "obj-75", 2 ]
								}

							}
, 							{
								"patchline" : 								{
									"destination" : [ "obj-1", 0 ],
									"source" : [ "obj-80", 1 ]
								}

							}
, 							{
								"patchline" : 								{
									"destination" : [ "obj-142", 0 ],
									"source" : [ "obj-80", 0 ]
								}

							}
, 							{
								"patchline" : 								{
									"destination" : [ "obj-26", 1 ],
									"source" : [ "obj-80", 2 ]
								}

							}
, 							{
								"patchline" : 								{
									"destination" : [ "obj-10", 0 ],
									"source" : [ "obj-9", 0 ]
								}

							}
 ],
						"patchlinecolor" : [ 0.690196078431373, 0.709803921568627, 0.63921568627451, 1.0 ],
						"bgcolor" : [ 0.149019607843137, 0.219607843137255, 0.247058823529412, 1.0 ],
						"editing_bgcolor" : [ 0.149019607843137, 0.219607843137255, 0.247058823529412, 1.0 ]
					}
,
					"patching_rect" : [ 754.0, 702.0, 1325.0, 22.0 ],
					"saved_object_attributes" : 					{
						"editing_bgcolor" : [ 0.149019607843137, 0.219607843137255, 0.247058823529412, 1.0 ],
						"locked_bgcolor" : [ 0.149019607843137, 0.219607843137255, 0.247058823529412, 1.0 ],
						"patchlinecolor" : [ 0.690196078431373, 0.709803921568627, 0.63921568627451, 1.0 ]
					}
,
					"text" : "p ENV_OneShot&Loop"
				}

			}
, 			{
				"box" : 				{
					"id" : "obj-53",
					"maxclass" : "newobj",
					"numinlets" : 1,
					"numoutlets" : 4,
					"outlettype" : [ "bang", "bang", "bang", "bang" ],
					"patching_rect" : [ 753.0, 743.243193626403809, 437.0, 22.0 ],
					"text" : "t b b b b"
				}

			}
, 			{
				"box" : 				{
					"id" : "obj-43",
					"maxclass" : "newobj",
					"numinlets" : 2,
					"numoutlets" : 2,
					"outlettype" : [ "", "" ],
					"patching_rect" : [ 892.333333333333371, 818.0, 38.0, 22.0 ],
					"text" : "zl.reg"
				}

			}
, 			{
				"box" : 				{
					"id" : "obj-42",
					"maxclass" : "newobj",
					"numinlets" : 2,
					"numoutlets" : 2,
					"outlettype" : [ "", "" ],
					"patching_rect" : [ 1171.0, 880.0, 38.0, 22.0 ],
					"text" : "zl.reg"
				}

			}
, 			{
				"box" : 				{
					"id" : "obj-33",
					"maxclass" : "newobj",
					"numinlets" : 1,
					"numoutlets" : 1,
					"outlettype" : [ "" ],
					"patching_rect" : [ 1445.0, 1442.0, 96.0, 22.0 ],
					"text" : "prepend remove"
				}

			}
, 			{
				"box" : 				{
					"id" : "obj-15",
					"maxclass" : "newobj",
					"numinlets" : 1,
					"numoutlets" : 4,
					"outlettype" : [ "", "", "", "" ],
					"patching_rect" : [ 1445.0, 1471.0, 141.0, 22.0 ],
					"saved_object_attributes" : 					{
						"embed" : 0,
						"precision" : 6
					}
,
					"text" : "coll #1Mosaique_player"
				}

			}
, 			{
				"box" : 				{
					"id" : "obj-34",
					"maxclass" : "newobj",
					"numinlets" : 1,
					"numoutlets" : 1,
					"outlettype" : [ "" ],
					"patching_rect" : [ 1727.0, 1442.0, 83.0, 22.0 ],
					"text" : "prepend store"
				}

			}
, 			{
				"box" : 				{
					"id" : "obj-8",
					"maxclass" : "newobj",
					"numinlets" : 1,
					"numoutlets" : 4,
					"outlettype" : [ "", "", "", "" ],
					"patching_rect" : [ 1727.0, 1471.0, 141.0, 22.0 ],
					"saved_object_attributes" : 					{
						"embed" : 0,
						"precision" : 6
					}
,
					"text" : "coll #1Mosaique_player"
				}

			}
, 			{
				"box" : 				{
					"id" : "obj-4",
					"maxclass" : "comment",
					"numinlets" : 1,
					"numoutlets" : 0,
					"patching_rect" : [ 1093.0, 481.0, 213.0, 20.0 ],
					"text" : "Security of voice stealing is happening"
				}

			}
, 			{
				"box" : 				{
					"id" : "obj-55",
					"maxclass" : "newobj",
					"numinlets" : 1,
					"numoutlets" : 1,
					"outlettype" : [ "" ],
					"patching_rect" : [ 986.0, 480.0, 96.0, 22.0 ],
					"text" : "prepend remove"
				}

			}
, 			{
				"box" : 				{
					"id" : "obj-56",
					"maxclass" : "newobj",
					"numinlets" : 1,
					"numoutlets" : 4,
					"outlettype" : [ "", "", "", "" ],
					"patching_rect" : [ 986.0, 509.0, 141.0, 22.0 ],
					"saved_object_attributes" : 					{
						"embed" : 0,
						"precision" : 6
					}
,
					"text" : "coll #1Mosaique_player"
				}

			}
, 			{
				"box" : 				{
					"id" : "obj-116",
					"maxclass" : "newobj",
					"numinlets" : 1,
					"numoutlets" : 2,
					"outlettype" : [ "bang", "int" ],
					"patching_rect" : [ 1116.0, 331.0, 32.0, 22.0 ],
					"text" : "t b 0"
				}

			}
, 			{
				"box" : 				{
					"id" : "obj-106",
					"maxclass" : "newobj",
					"numinlets" : 0,
					"numoutlets" : 1,
					"outlettype" : [ "" ],
					"patching_rect" : [ 584.0, 916.0, 213.0, 22.0 ],
					"text" : "r #1Mosaique_GranulPlayer_Params"
				}

			}
, 			{
				"box" : 				{
					"id" : "obj-19",
					"maxclass" : "newobj",
					"numinlets" : 3,
					"numoutlets" : 3,
					"outlettype" : [ "", "", "" ],
					"patching_rect" : [ 630.0, 287.162142992019653, 991.0, 22.0 ],
					"text" : "route event endevent"
				}

			}
, 			{
				"box" : 				{
					"id" : "obj-13",
					"maxclass" : "newobj",
					"numinlets" : 2,
					"numoutlets" : 1,
					"outlettype" : [ "" ],
					"patching_rect" : [ 1445.0, 1410.0, 53.0, 22.0 ],
					"text" : "pack s 0"
				}

			}
, 			{
				"box" : 				{
					"id" : "obj-12",
					"maxclass" : "newobj",
					"numinlets" : 2,
					"numoutlets" : 1,
					"outlettype" : [ "" ],
					"patching_rect" : [ 1727.0, 1410.0, 53.0, 22.0 ],
					"text" : "pack s 1"
				}

			}
, 			{
				"box" : 				{
					"id" : "obj-71",
					"maxclass" : "newobj",
					"numinlets" : 0,
					"numoutlets" : 1,
					"outlettype" : [ "" ],
					"patching_rect" : [ 1028.0, 410.0, 113.0, 22.0 ],
					"text" : "r #0currentSlice"
				}

			}
, 			{
				"box" : 				{
					"id" : "obj-66",
					"maxclass" : "message",
					"numinlets" : 2,
					"numoutlets" : 1,
					"outlettype" : [ "" ],
					"patching_rect" : [ 2261.0, 1659.0, 50.0, 22.0 ]
				}

			}
, 			{
				"box" : 				{
					"id" : "obj-64",
					"linecount" : 2,
					"maxclass" : "comment",
					"numinlets" : 1,
					"numoutlets" : 0,
					"patching_rect" : [ 1935.0, 1264.0, 69.0, 33.0 ],
					"text" : "0 = note off\n1 = note on"
				}

			}
, 			{
				"box" : 				{
					"id" : "obj-57",
					"maxclass" : "newobj",
					"numinlets" : 2,
					"numoutlets" : 1,
					"outlettype" : [ "" ],
					"patching_rect" : [ 986.0, 410.0, 32.0, 22.0 ],
					"text" : "gate"
				}

			}
, 			{
				"box" : 				{
					"id" : "obj-54",
					"maxclass" : "newobj",
					"numinlets" : 2,
					"numoutlets" : 2,
					"outlettype" : [ "", "" ],
					"patching_rect" : [ 986.0, 451.0, 61.0, 22.0 ],
					"text" : "zl.reg"
				}

			}
, 			{
				"box" : 				{
					"id" : "obj-45",
					"maxclass" : "newobj",
					"numinlets" : 1,
					"numoutlets" : 0,
					"patching_rect" : [ 1031.666666666666742, 823.0, 115.0, 22.0 ],
					"text" : "s #0currentSlice"
				}

			}
, 			{
				"box" : 				{
					"id" : "obj-112",
					"maxclass" : "newobj",
					"numinlets" : 0,
					"numoutlets" : 1,
					"outlettype" : [ "" ],
					"patching_rect" : [ 1916.0, 1319.0, 113.0, 22.0 ],
					"text" : "r #0currentSlice"
				}

			}
, 			{
				"box" : 				{
					"id" : "obj-105",
					"maxclass" : "newobj",
					"numinlets" : 2,
					"numoutlets" : 2,
					"outlettype" : [ "", "" ],
					"patching_rect" : [ 1727.0, 1377.0, 38.0, 22.0 ],
					"text" : "zl.reg"
				}

			}
, 			{
				"box" : 				{
					"id" : "obj-30",
					"maxclass" : "newobj",
					"numinlets" : 1,
					"numoutlets" : 3,
					"outlettype" : [ "bang", "bang", "bang" ],
					"patching_rect" : [ 1660.0, 1319.0, 153.0, 22.0 ],
					"text" : "t b b b"
				}

			}
, 			{
				"box" : 				{
					"id" : "obj-88",
					"maxclass" : "newobj",
					"numinlets" : 2,
					"numoutlets" : 2,
					"outlettype" : [ "", "" ],
					"patching_rect" : [ 1445.0, 1377.0, 38.0, 22.0 ],
					"text" : "zl.reg"
				}

			}
, 			{
				"box" : 				{
					"id" : "obj-31",
					"maxclass" : "newobj",
					"numinlets" : 1,
					"numoutlets" : 4,
					"outlettype" : [ "bang", "stop", "bang", "int" ],
					"patching_rect" : [ 1406.0, 1310.0, 78.0, 22.0 ],
					"text" : "t b stop b 0"
				}

			}
, 			{
				"box" : 				{
					"id" : "obj-41",
					"maxclass" : "newobj",
					"numinlets" : 1,
					"numoutlets" : 0,
					"patching_rect" : [ 1406.0, 1528.0, 293.0, 22.0 ],
					"saved_object_attributes" : 					{
						"attr_comment" : "Bang when highlight changes"
					}
,
					"text" : "out 1 @attr_comment \"Bang when highlight changes\""
				}

			}
, 			{
				"box" : 				{
					"id" : "obj-44",
					"maxclass" : "newobj",
					"numinlets" : 3,
					"numoutlets" : 3,
					"outlettype" : [ "bang", "bang", "" ],
					"patching_rect" : [ 1406.0, 1269.0, 527.0, 22.0 ],
					"text" : "select 0 1"
				}

			}
, 			{
				"box" : 				{
					"id" : "obj-117",
					"maxclass" : "comment",
					"numinlets" : 1,
					"numoutlets" : 0,
					"patching_rect" : [ 459.0, 160.0, 150.0, 20.0 ],
					"text" : "Split ON and OFF events"
				}

			}
, 			{
				"box" : 				{
					"id" : "obj-3",
					"maxclass" : "newobj",
					"numinlets" : 1,
					"numoutlets" : 1,
					"outlettype" : [ "" ],
					"patching_rect" : [ 1171.0, 916.0, 116.0, 22.0 ],
					"text" : "prepend soundBank"
				}

			}
, 			{
				"box" : 				{
					"id" : "obj-11",
					"maxclass" : "newobj",
					"numinlets" : 1,
					"numoutlets" : 4,
					"outlettype" : [ "int", "", "", "bang" ],
					"patching_rect" : [ 630.0, 331.0, 388.0, 22.0 ],
					"text" : "t 1 s s b"
				}

			}
, 			{
				"box" : 				{
					"id" : "obj-10",
					"maxclass" : "newobj",
					"numinlets" : 1,
					"numoutlets" : 0,
					"patching_rect" : [ 898.333333333333485, 1310.0, 42.0, 22.0 ],
					"saved_object_attributes" : 					{
						"attr_comment" : ""
					}
,
					"text" : "out~ 2"
				}

			}
, 			{
				"box" : 				{
					"id" : "obj-7",
					"maxclass" : "newobj",
					"numinlets" : 2,
					"numoutlets" : 1,
					"outlettype" : [ "signal" ],
					"patching_rect" : [ 898.333333333333485, 1272.0, 50.5, 22.0 ],
					"text" : "*~"
				}

			}
, 			{
				"box" : 				{
					"id" : "obj-102",
					"maxclass" : "newobj",
					"numinlets" : 1,
					"numoutlets" : 0,
					"patching_rect" : [ 748.333333333333485, 1310.0, 42.0, 22.0 ],
					"saved_object_attributes" : 					{
						"attr_comment" : ""
					}
,
					"text" : "out~ 1"
				}

			}
, 			{
				"box" : 				{
					"id" : "obj-89",
					"maxclass" : "newobj",
					"numinlets" : 2,
					"numoutlets" : 1,
					"outlettype" : [ "signal" ],
					"patching_rect" : [ 748.333333333333485, 1272.0, 50.5, 22.0 ],
					"text" : "*~"
				}

			}
, 			{
				"box" : 				{
					"id" : "obj-60",
					"linecount" : 2,
					"maxclass" : "comment",
					"numinlets" : 1,
					"numoutlets" : 0,
					"patching_rect" : [ 1218.0, 608.0, 252.455699265003204, 33.0 ],
					"text" : "<<< Beaucoup  implmenter ici. Ajustement au SR, ajustement en fonction de numchans"
				}

			}
, 			{
				"box" : 				{
					"color" : [ 0.368627450980392, 1.0, 0.086274509803922, 1.0 ],
					"id" : "obj-58",
					"maxclass" : "newobj",
					"numinlets" : 1,
					"numoutlets" : 5,
					"outlettype" : [ "", "float", "float", "float", "" ],
					"patching_rect" : [ 753.0, 612.0, 456.0, 22.0 ],
					"text" : "_mosaique.sliceInfos #1"
				}

			}
, 			{
				"box" : 				{
					"id" : "obj-46",
					"maxclass" : "newobj",
					"numinlets" : 1,
					"numoutlets" : 2,
					"outlettype" : [ "int", "int" ],
					"patching_rect" : [ 892.333333333333371, 848.0, 179.84493578970438, 22.0 ],
					"text" : "unpack i i"
				}

			}
, 			{
				"box" : 				{
					"id" : "obj-2",
					"maxclass" : "newobj",
					"numinlets" : 1,
					"numoutlets" : 1,
					"outlettype" : [ "" ],
					"patching_rect" : [ 630.0, 193.24323034286499, 28.0, 22.0 ],
					"saved_object_attributes" : 					{
						"attr_comment" : ""
					}
,
					"text" : "in 1"
				}

			}
, 			{
				"box" : 				{
					"angle" : 270.0,
					"bgcolor" : [ 0.925490196078431, 0.635294117647059, 0.635294117647059, 1.0 ],
					"id" : "obj-61",
					"maxclass" : "panel",
					"mode" : 0,
					"numinlets" : 1,
					"numoutlets" : 0,
					"patching_rect" : [ 745.0, 598.0, 735.784807205200195, 53.392404586076736 ],
					"proportion" : 0.5
				}

			}
 ],
		"lines" : [ 			{
				"patchline" : 				{
					"destination" : [ "obj-12", 0 ],
					"source" : [ "obj-105", 0 ]
				}

			}
, 			{
				"patchline" : 				{
					"destination" : [ "obj-6", 0 ],
					"source" : [ "obj-106", 0 ]
				}

			}
, 			{
				"patchline" : 				{
					"destination" : [ "obj-20", 1 ],
					"source" : [ "obj-11", 2 ]
				}

			}
, 			{
				"patchline" : 				{
					"destination" : [ "obj-57", 1 ],
					"source" : [ "obj-11", 3 ]
				}

			}
, 			{
				"patchline" : 				{
					"color" : [ 1.0, 0.0, 0.728715062141418, 1.0 ],
					"destination" : [ "obj-57", 0 ],
					"midpoints" : [ 639.5, 397.27611243724823, 995.5, 397.27611243724823 ],
					"source" : [ "obj-11", 0 ]
				}

			}
, 			{
				"patchline" : 				{
					"destination" : [ "obj-58", 0 ],
					"source" : [ "obj-11", 1 ]
				}

			}
, 			{
				"patchline" : 				{
					"color" : [ 0.472647875547409, 0.0, 0.950279474258423, 1.0 ],
					"destination" : [ "obj-105", 1 ],
					"midpoints" : [ 1925.5, 1368.5, 1755.5, 1368.5 ],
					"order" : 0,
					"source" : [ "obj-112", 0 ]
				}

			}
, 			{
				"patchline" : 				{
					"color" : [ 0.472647875547409, 0.0, 0.950279474258423, 1.0 ],
					"destination" : [ "obj-88", 1 ],
					"midpoints" : [ 1925.5, 1368.5, 1473.5, 1368.5 ],
					"order" : 1,
					"source" : [ "obj-112", 0 ]
				}

			}
, 			{
				"patchline" : 				{
					"destination" : [ "obj-54", 0 ],
					"source" : [ "obj-116", 0 ]
				}

			}
, 			{
				"patchline" : 				{
					"destination" : [ "obj-34", 0 ],
					"source" : [ "obj-12", 0 ]
				}

			}
, 			{
				"patchline" : 				{
					"destination" : [ "obj-33", 0 ],
					"source" : [ "obj-13", 0 ]
				}

			}
, 			{
				"patchline" : 				{
					"destination" : [ "obj-22", 0 ],
					"source" : [ "obj-14", 0 ]
				}

			}
, 			{
				"patchline" : 				{
					"destination" : [ "obj-11", 0 ],
					"source" : [ "obj-19", 0 ]
				}

			}
, 			{
				"patchline" : 				{
					"destination" : [ "obj-116", 0 ],
					"source" : [ "obj-19", 1 ]
				}

			}
, 			{
				"patchline" : 				{
					"destination" : [ "obj-19", 0 ],
					"source" : [ "obj-2", 0 ]
				}

			}
, 			{
				"patchline" : 				{
					"color" : [ 0.496969997882843, 0.0, 0.980095148086548, 1.0 ],
					"destination" : [ "obj-45", 0 ],
					"source" : [ "obj-20", 0 ]
				}

			}
, 			{
				"patchline" : 				{
					"destination" : [ "obj-14", 0 ],
					"source" : [ "obj-21", 0 ]
				}

			}
, 			{
				"patchline" : 				{
					"destination" : [ "obj-41", 0 ],
					"source" : [ "obj-22", 0 ]
				}

			}
, 			{
				"patchline" : 				{
					"destination" : [ "obj-8", 0 ],
					"source" : [ "obj-22", 1 ]
				}

			}
, 			{
				"patchline" : 				{
					"destination" : [ "obj-1", 0 ],
					"source" : [ "obj-25", 2 ]
				}

			}
, 			{
				"patchline" : 				{
					"destination" : [ "obj-7", 0 ],
					"source" : [ "obj-25", 1 ]
				}

			}
, 			{
				"patchline" : 				{
					"destination" : [ "obj-89", 0 ],
					"source" : [ "obj-25", 0 ]
				}

			}
, 			{
				"patchline" : 				{
					"destination" : [ "obj-25", 1 ],
					"source" : [ "obj-26", 0 ]
				}

			}
, 			{
				"patchline" : 				{
					"destination" : [ "obj-25", 2 ],
					"source" : [ "obj-27", 0 ]
				}

			}
, 			{
				"patchline" : 				{
					"destination" : [ "obj-25", 0 ],
					"source" : [ "obj-3", 0 ]
				}

			}
, 			{
				"patchline" : 				{
					"destination" : [ "obj-105", 0 ],
					"source" : [ "obj-30", 1 ]
				}

			}
, 			{
				"patchline" : 				{
					"destination" : [ "obj-41", 0 ],
					"midpoints" : [ 1669.5, 1510.0, 1415.5, 1510.0 ],
					"source" : [ "obj-30", 0 ]
				}

			}
, 			{
				"patchline" : 				{
					"destination" : [ "obj-41", 0 ],
					"source" : [ "obj-31", 0 ]
				}

			}
, 			{
				"patchline" : 				{
					"color" : [ 1.0, 0.0, 0.728715062141418, 1.0 ],
					"destination" : [ "obj-57", 0 ],
					"midpoints" : [ 1474.5, 1364.0, 22.354254752397537, 1364.0, 22.354254752397537, 396.0, 995.5, 396.0 ],
					"source" : [ "obj-31", 3 ]
				}

			}
, 			{
				"patchline" : 				{
					"destination" : [ "obj-88", 0 ],
					"source" : [ "obj-31", 2 ]
				}

			}
, 			{
				"patchline" : 				{
					"destination" : [ "obj-15", 0 ],
					"source" : [ "obj-33", 0 ]
				}

			}
, 			{
				"patchline" : 				{
					"destination" : [ "obj-8", 0 ],
					"source" : [ "obj-34", 0 ]
				}

			}
, 			{
				"patchline" : 				{
					"destination" : [ "obj-3", 0 ],
					"source" : [ "obj-42", 0 ]
				}

			}
, 			{
				"patchline" : 				{
					"destination" : [ "obj-46", 0 ],
					"source" : [ "obj-43", 0 ]
				}

			}
, 			{
				"patchline" : 				{
					"destination" : [ "obj-30", 0 ],
					"source" : [ "obj-44", 1 ]
				}

			}
, 			{
				"patchline" : 				{
					"destination" : [ "obj-31", 0 ],
					"source" : [ "obj-44", 0 ]
				}

			}
, 			{
				"patchline" : 				{
					"destination" : [ "obj-26", 0 ],
					"source" : [ "obj-46", 0 ]
				}

			}
, 			{
				"patchline" : 				{
					"destination" : [ "obj-27", 0 ],
					"source" : [ "obj-46", 1 ]
				}

			}
, 			{
				"patchline" : 				{
					"destination" : [ "obj-44", 0 ],
					"source" : [ "obj-5", 1 ]
				}

			}
, 			{
				"patchline" : 				{
					"destination" : [ "obj-53", 0 ],
					"source" : [ "obj-5", 0 ]
				}

			}
, 			{
				"patchline" : 				{
					"destination" : [ "obj-7", 1 ],
					"order" : 0,
					"source" : [ "obj-5", 2 ]
				}

			}
, 			{
				"patchline" : 				{
					"destination" : [ "obj-89", 1 ],
					"order" : 1,
					"source" : [ "obj-5", 2 ]
				}

			}
, 			{
				"patchline" : 				{
					"destination" : [ "obj-20", 0 ],
					"source" : [ "obj-53", 2 ]
				}

			}
, 			{
				"patchline" : 				{
					"destination" : [ "obj-42", 0 ],
					"source" : [ "obj-53", 3 ]
				}

			}
, 			{
				"patchline" : 				{
					"destination" : [ "obj-43", 0 ],
					"source" : [ "obj-53", 1 ]
				}

			}
, 			{
				"patchline" : 				{
					"destination" : [ "obj-55", 0 ],
					"source" : [ "obj-54", 0 ]
				}

			}
, 			{
				"patchline" : 				{
					"destination" : [ "obj-56", 0 ],
					"source" : [ "obj-55", 0 ]
				}

			}
, 			{
				"patchline" : 				{
					"destination" : [ "obj-54", 0 ],
					"source" : [ "obj-57", 0 ]
				}

			}
, 			{
				"patchline" : 				{
					"destination" : [ "obj-42", 1 ],
					"source" : [ "obj-58", 4 ]
				}

			}
, 			{
				"patchline" : 				{
					"destination" : [ "obj-9", 0 ],
					"source" : [ "obj-58", 0 ]
				}

			}
, 			{
				"patchline" : 				{
					"destination" : [ "obj-25", 0 ],
					"source" : [ "obj-6", 1 ]
				}

			}
, 			{
				"patchline" : 				{
					"destination" : [ "obj-10", 0 ],
					"source" : [ "obj-7", 0 ]
				}

			}
, 			{
				"patchline" : 				{
					"destination" : [ "obj-54", 1 ],
					"source" : [ "obj-71", 0 ]
				}

			}
, 			{
				"patchline" : 				{
					"destination" : [ "obj-13", 0 ],
					"source" : [ "obj-88", 0 ]
				}

			}
, 			{
				"patchline" : 				{
					"destination" : [ "obj-102", 0 ],
					"source" : [ "obj-89", 0 ]
				}

			}
, 			{
				"patchline" : 				{
					"destination" : [ "obj-43", 1 ],
					"source" : [ "obj-9", 1 ]
				}

			}
, 			{
				"patchline" : 				{
					"destination" : [ "obj-5", 0 ],
					"source" : [ "obj-9", 0 ]
				}

			}
 ]
	}

}
