{
	"patcher" : 	{
		"fileversion" : 1,
		"appversion" : 		{
			"major" : 9,
			"minor" : 0,
			"revision" : 7,
			"architecture" : "x64",
			"modernui" : 1
		}
,
		"classnamespace" : "box",
		"rect" : [ 276.0, 359.0, 927.0, 592.0 ],
		"openinpresentation" : 1,
		"gridsize" : [ 15.0, 15.0 ],
		"boxes" : [ 			{
				"box" : 				{
					"id" : "obj-5",
					"maxclass" : "newobj",
					"numinlets" : 1,
					"numoutlets" : 2,
					"outlettype" : [ "bang", "stopall" ],
					"patching_rect" : [ -34.0, 195.0, 60.0, 22.0 ],
					"text" : "t b stopall"
				}

			}
, 			{
				"box" : 				{
					"id" : "obj-60",
					"maxclass" : "newobj",
					"numinlets" : 2,
					"numoutlets" : 1,
					"outlettype" : [ "" ],
					"patcher" : 					{
						"fileversion" : 1,
						"appversion" : 						{
							"major" : 9,
							"minor" : 0,
							"revision" : 7,
							"architecture" : "x64",
							"modernui" : 1
						}
,
						"classnamespace" : "box",
						"rect" : [ 775.0, 383.0, 640.0, 480.0 ],
						"gridsize" : [ 15.0, 15.0 ],
						"boxes" : [ 							{
								"box" : 								{
									"id" : "obj-4",
									"maxclass" : "newobj",
									"numinlets" : 2,
									"numoutlets" : 2,
									"outlettype" : [ "", "" ],
									"patching_rect" : [ 133.0, 122.0, 47.0, 22.0 ],
									"text" : "zl.nth 1"
								}

							}
, 							{
								"box" : 								{
									"id" : "obj-6",
									"maxclass" : "newobj",
									"numinlets" : 2,
									"numoutlets" : 2,
									"outlettype" : [ "", "" ],
									"patching_rect" : [ 133.0, 94.0, 45.0, 22.0 ],
									"text" : "zl.rot 1"
								}

							}
, 							{
								"box" : 								{
									"id" : "obj-9",
									"maxclass" : "newobj",
									"numinlets" : 2,
									"numoutlets" : 2,
									"outlettype" : [ "", "" ],
									"patching_rect" : [ 64.0, 122.0, 47.0, 22.0 ],
									"text" : "zl.nth 1"
								}

							}
, 							{
								"box" : 								{
									"id" : "obj-5",
									"maxclass" : "newobj",
									"numinlets" : 2,
									"numoutlets" : 2,
									"outlettype" : [ "", "" ],
									"patching_rect" : [ 64.0, 94.0, 45.0, 22.0 ],
									"text" : "zl.rot 1"
								}

							}
, 							{
								"box" : 								{
									"id" : "obj-2",
									"maxclass" : "newobj",
									"numinlets" : 2,
									"numoutlets" : 2,
									"outlettype" : [ "", "" ],
									"patching_rect" : [ 92.0, 309.0, 88.0, 22.0 ],
									"text" : "zl.lace"
								}

							}
, 							{
								"box" : 								{
									"comment" : "",
									"id" : "obj-1",
									"index" : 1,
									"maxclass" : "inlet",
									"numinlets" : 0,
									"numoutlets" : 1,
									"outlettype" : [ "" ],
									"patching_rect" : [ 63.5, 44.0, 30.0, 30.0 ]
								}

							}
, 							{
								"box" : 								{
									"id" : "obj-91",
									"maxclass" : "newobj",
									"numinlets" : 1,
									"numoutlets" : 2,
									"outlettype" : [ "", "" ],
									"patching_rect" : [ 161.0, 209.0, 233.0, 22.0 ],
									"text" : "t l l"
								}

							}
, 							{
								"box" : 								{
									"id" : "obj-90",
									"maxclass" : "newobj",
									"numinlets" : 2,
									"numoutlets" : 2,
									"outlettype" : [ "", "" ],
									"patching_rect" : [ 375.0, 241.0, 43.0, 22.0 ],
									"text" : "zl.sum"
								}

							}
, 							{
								"box" : 								{
									"id" : "obj-57",
									"maxclass" : "newobj",
									"numinlets" : 2,
									"numoutlets" : 1,
									"outlettype" : [ "" ],
									"patching_rect" : [ 161.0, 275.0, 233.0, 22.0 ],
									"text" : "vexpr pow(($f1/$f2)\\, 0.25) @scalarmode 1"
								}

							}
, 							{
								"box" : 								{
									"id" : "obj-86",
									"maxclass" : "newobj",
									"numinlets" : 1,
									"numoutlets" : 1,
									"outlettype" : [ "" ],
									"patching_rect" : [ 161.0, 171.0, 217.0, 22.0 ],
									"text" : "vexpr 1./($f1+0.00001) @scalarmode 1"
								}

							}
, 							{
								"box" : 								{
									"comment" : "",
									"id" : "obj-58",
									"index" : 2,
									"maxclass" : "inlet",
									"numinlets" : 0,
									"numoutlets" : 1,
									"outlettype" : [ "" ],
									"patching_rect" : [ 133.0, 44.0, 30.0, 30.0 ]
								}

							}
, 							{
								"box" : 								{
									"comment" : "",
									"id" : "obj-59",
									"index" : 1,
									"maxclass" : "outlet",
									"numinlets" : 1,
									"numoutlets" : 0,
									"patching_rect" : [ 91.5, 349.0, 30.0, 30.0 ]
								}

							}
 ],
						"lines" : [ 							{
								"patchline" : 								{
									"destination" : [ "obj-5", 0 ],
									"source" : [ "obj-1", 0 ]
								}

							}
, 							{
								"patchline" : 								{
									"destination" : [ "obj-59", 0 ],
									"source" : [ "obj-2", 0 ]
								}

							}
, 							{
								"patchline" : 								{
									"destination" : [ "obj-86", 0 ],
									"source" : [ "obj-4", 1 ]
								}

							}
, 							{
								"patchline" : 								{
									"destination" : [ "obj-9", 0 ],
									"source" : [ "obj-5", 0 ]
								}

							}
, 							{
								"patchline" : 								{
									"destination" : [ "obj-2", 1 ],
									"source" : [ "obj-57", 0 ]
								}

							}
, 							{
								"patchline" : 								{
									"destination" : [ "obj-6", 0 ],
									"source" : [ "obj-58", 0 ]
								}

							}
, 							{
								"patchline" : 								{
									"destination" : [ "obj-4", 0 ],
									"source" : [ "obj-6", 0 ]
								}

							}
, 							{
								"patchline" : 								{
									"destination" : [ "obj-91", 0 ],
									"source" : [ "obj-86", 0 ]
								}

							}
, 							{
								"patchline" : 								{
									"destination" : [ "obj-2", 0 ],
									"source" : [ "obj-9", 1 ]
								}

							}
, 							{
								"patchline" : 								{
									"destination" : [ "obj-57", 1 ],
									"source" : [ "obj-90", 0 ]
								}

							}
, 							{
								"patchline" : 								{
									"destination" : [ "obj-57", 0 ],
									"source" : [ "obj-91", 0 ]
								}

							}
, 							{
								"patchline" : 								{
									"destination" : [ "obj-90", 0 ],
									"source" : [ "obj-91", 1 ]
								}

							}
 ]
					}
,
					"patching_rect" : [ -712.999999999999886, 624.0, 132.0, 22.0 ],
					"text" : "p Distance-2-Loudness"
				}

			}
, 			{
				"box" : 				{
					"id" : "obj-6",
					"maxclass" : "message",
					"numinlets" : 2,
					"numoutlets" : 1,
					"outlettype" : [ "" ],
					"patching_rect" : [ -189.0, 213.0, 71.0, 22.0 ],
					"text" : "outputvalue"
				}

			}
, 			{
				"box" : 				{
					"id" : "obj-7",
					"maxclass" : "newobj",
					"numinlets" : 1,
					"numoutlets" : 1,
					"outlettype" : [ "stopall" ],
					"patching_rect" : [ 712.0, 874.474525545625511, 50.0, 22.0 ],
					"text" : "t stopall"
				}

			}
, 			{
				"box" : 				{
					"annotation" : "Stop all voices from playing. Toggle for looping or one-shot playback modes.",
					"annotation_name" : "Morph Player - Stop all",
					"automation" : "Stop",
					"automationon" : "All",
					"fontname" : "Ableton Sans Light",
					"id" : "obj-12",
					"maxclass" : "live.text",
					"mode" : 0,
					"numinlets" : 1,
					"numoutlets" : 2,
					"outlettype" : [ "", "" ],
					"parameter_enable" : 1,
					"patching_rect" : [ 712.0, 833.474525545625511, 71.0, 22.0 ],
					"presentation" : 1,
					"presentation_rect" : [ 84.0, 95.0, 27.0, 15.0 ],
					"saved_attribute_attributes" : 					{
						"valueof" : 						{
							"parameter_annotation_name" : "Morph Player - Stop all",
							"parameter_enum" : [ "Stop", "All" ],
							"parameter_info" : "Stop all voices from playing. Toggle for looping or one-shot playback modes.",
							"parameter_linknames" : 1,
							"parameter_longname" : "Morph - Stop All",
							"parameter_mmax" : 1,
							"parameter_modmode" : 0,
							"parameter_shortname" : "Stop All",
							"parameter_type" : 2
						}

					}
,
					"text" : "stop",
					"texton" : "looped",
					"varname" : "Morph - Stop All"
				}

			}
, 			{
				"box" : 				{
					"id" : "obj-106",
					"maxclass" : "newobj",
					"numinlets" : 1,
					"numoutlets" : 0,
					"patching_rect" : [ 68.0, 930.474525545625511, 206.0, 22.0 ],
					"text" : "s #1Mosaique_MorphPlayer_Params"
				}

			}
, 			{
				"box" : 				{
					"id" : "obj-35",
					"maxclass" : "newobj",
					"numinlets" : 1,
					"numoutlets" : 0,
					"patching_rect" : [ 604.0, 797.474525545625511, 81.0, 22.0 ],
					"text" : "s #0_loop"
				}

			}
, 			{
				"box" : 				{
					"id" : "obj-13",
					"maxclass" : "newobj",
					"numinlets" : 1,
					"numoutlets" : 3,
					"outlettype" : [ "int", "int", "bang" ],
					"patching_rect" : [ 593.0, 752.474525545625511, 40.0, 22.0 ],
					"text" : "t i i b"
				}

			}
, 			{
				"box" : 				{
					"id" : "obj-14",
					"maxclass" : "newobj",
					"numinlets" : 1,
					"numoutlets" : 2,
					"outlettype" : [ "outputvalue", "int" ],
					"patching_rect" : [ 4.0, 541.474525545625511, 83.0, 22.0 ],
					"text" : "t outputvalue i"
				}

			}
, 			{
				"box" : 				{
					"id" : "obj-15",
					"maxclass" : "newobj",
					"numinlets" : 1,
					"numoutlets" : 1,
					"outlettype" : [ "" ],
					"patching_rect" : [ 68.0, 860.474525545625511, 121.0, 22.0 ],
					"text" : "prepend transpo_link"
				}

			}
, 			{
				"box" : 				{
					"id" : "obj-16",
					"maxclass" : "newobj",
					"numinlets" : 1,
					"numoutlets" : 1,
					"outlettype" : [ "" ],
					"patcher" : 					{
						"fileversion" : 1,
						"appversion" : 						{
							"major" : 9,
							"minor" : 0,
							"revision" : 7,
							"architecture" : "x64",
							"modernui" : 1
						}
,
						"classnamespace" : "box",
						"rect" : [ 316.0, 462.0, 576.0, 516.0 ],
						"gridsize" : [ 15.0, 15.0 ],
						"boxes" : [ 							{
								"box" : 								{
									"id" : "obj-15",
									"maxclass" : "newobj",
									"numinlets" : 1,
									"numoutlets" : 1,
									"outlettype" : [ "" ],
									"patching_rect" : [ 46.0, 394.0, 72.0, 22.0 ],
									"text" : "prepend set"
								}

							}
, 							{
								"box" : 								{
									"id" : "obj-14",
									"maxclass" : "newobj",
									"numinlets" : 2,
									"numoutlets" : 1,
									"outlettype" : [ "int" ],
									"patching_rect" : [ 46.0, 356.0, 29.5, 22.0 ],
									"text" : "int"
								}

							}
, 							{
								"box" : 								{
									"id" : "obj-2",
									"maxclass" : "newobj",
									"numinlets" : 1,
									"numoutlets" : 1,
									"outlettype" : [ "" ],
									"patching_rect" : [ 46.0, 286.0, 185.0, 22.0 ],
									"text" : "expr 12.*((log10($f1))/(log10(2.)))"
								}

							}
, 							{
								"box" : 								{
									"comment" : "",
									"id" : "obj-64",
									"index" : 1,
									"maxclass" : "inlet",
									"numinlets" : 0,
									"numoutlets" : 1,
									"outlettype" : [ "" ],
									"patching_rect" : [ 46.0, 221.0, 30.0, 30.0 ],
									"varname" : "u222003584"
								}

							}
, 							{
								"box" : 								{
									"comment" : "",
									"id" : "obj-66",
									"index" : 1,
									"maxclass" : "outlet",
									"numinlets" : 1,
									"numoutlets" : 0,
									"patching_rect" : [ 46.0, 440.0, 30.0, 30.0 ],
									"varname" : "u380001298"
								}

							}
 ],
						"lines" : [ 							{
								"patchline" : 								{
									"destination" : [ "obj-15", 0 ],
									"source" : [ "obj-14", 0 ]
								}

							}
, 							{
								"patchline" : 								{
									"destination" : [ "obj-66", 0 ],
									"source" : [ "obj-15", 0 ]
								}

							}
, 							{
								"patchline" : 								{
									"destination" : [ "obj-14", 0 ],
									"source" : [ "obj-2", 0 ]
								}

							}
, 							{
								"patchline" : 								{
									"destination" : [ "obj-2", 0 ],
									"source" : [ "obj-64", 0 ]
								}

							}
 ]
					}
,
					"patching_rect" : [ 207.0, 764.474525545625511, 85.0, 22.0 ],
					"text" : "p Ratio2Cents"
				}

			}
, 			{
				"box" : 				{
					"id" : "obj-18",
					"maxclass" : "newobj",
					"numinlets" : 2,
					"numoutlets" : 1,
					"outlettype" : [ "" ],
					"patching_rect" : [ 207.0, 726.474525545625511, 32.0, 22.0 ],
					"text" : "gate"
				}

			}
, 			{
				"box" : 				{
					"id" : "obj-19",
					"maxclass" : "newobj",
					"numinlets" : 1,
					"numoutlets" : 1,
					"outlettype" : [ "" ],
					"patching_rect" : [ 320.0, 860.474525545625511, 89.0, 22.0 ],
					"text" : "prepend speed"
				}

			}
, 			{
				"box" : 				{
					"id" : "obj-23",
					"maxclass" : "newobj",
					"numinlets" : 1,
					"numoutlets" : 1,
					"outlettype" : [ "" ],
					"patching_rect" : [ 340.0, 756.474525545625511, 72.0, 22.0 ],
					"text" : "prepend set"
				}

			}
, 			{
				"box" : 				{
					"id" : "obj-24",
					"maxclass" : "newobj",
					"numinlets" : 2,
					"numoutlets" : 1,
					"outlettype" : [ "" ],
					"patching_rect" : [ 340.0, 726.474525545625511, 32.0, 22.0 ],
					"text" : "gate"
				}

			}
, 			{
				"box" : 				{
					"annotation" : "Toggle on for direct transposition, off for pitch shifting and time stretching",
					"annotation_name" : "Morph Player - Pitch-Speed Link",
					"fontname" : "Ableton Sans Light",
					"id" : "obj-31",
					"maxclass" : "live.text",
					"numinlets" : 1,
					"numoutlets" : 2,
					"outlettype" : [ "", "" ],
					"parameter_enable" : 1,
					"patching_rect" : [ 4.0, 492.474525545625511, 44.0, 34.050948908748978 ],
					"pictures" : [ "link_off.svg", "link.svg" ],
					"presentation" : 1,
					"presentation_rect" : [ 63.0, 59.0, 21.75, 13.0 ],
					"remapsvgcolors" : 1,
					"saved_attribute_attributes" : 					{
						"valueof" : 						{
							"parameter_annotation_name" : "Morph Player - Pitch-Speed Link",
							"parameter_enum" : [ "val1", "val2" ],
							"parameter_info" : "Toggle on for direct transposition, off for pitch shifting and time stretching",
							"parameter_initial" : [ 1 ],
							"parameter_initial_enable" : 1,
							"parameter_linknames" : 1,
							"parameter_longname" : "Morph - Pitch-Speed Link",
							"parameter_mmax" : 1,
							"parameter_modmode" : 0,
							"parameter_shortname" : "link",
							"parameter_type" : 2
						}

					}
,
					"usepicture" : 1,
					"usesvgviewbox" : 1,
					"varname" : "Morph - Pitch-Speed Link"
				}

			}
, 			{
				"box" : 				{
					"annotation" : "Read speed of the slice",
					"annotation_name" : "Morph Player - Speed",
					"fontname" : "Ableton Sans Light",
					"id" : "obj-33",
					"maxclass" : "live.dial",
					"numinlets" : 1,
					"numoutlets" : 2,
					"outlettype" : [ "", "float" ],
					"parameter_enable" : 1,
					"patching_rect" : [ 320.0, 791.474525545625511, 41.0, 48.0 ],
					"presentation" : 1,
					"presentation_rect" : [ 24.0, 39.0, 43.0, 48.0 ],
					"saved_attribute_attributes" : 					{
						"valueof" : 						{
							"parameter_annotation_name" : "Morph Player - Speed",
							"parameter_exponent" : 2.333,
							"parameter_info" : "Read speed of the slice",
							"parameter_initial" : [ 1.0 ],
							"parameter_initial_enable" : 1,
							"parameter_linknames" : 1,
							"parameter_longname" : "Morph - Speed",
							"parameter_mmax" : 4.0,
							"parameter_mmin" : 0.25,
							"parameter_modmode" : 2,
							"parameter_shortname" : "Speed",
							"parameter_type" : 0,
							"parameter_units" : "x",
							"parameter_unitstyle" : 9
						}

					}
,
					"varname" : "Morph - Speed"
				}

			}
, 			{
				"box" : 				{
					"id" : "obj-119",
					"maxclass" : "newobj",
					"numinlets" : 1,
					"numoutlets" : 1,
					"outlettype" : [ "" ],
					"patching_rect" : [ 593.0, 860.474525545625511, 79.0, 22.0 ],
					"text" : "prepend loop"
				}

			}
, 			{
				"box" : 				{
					"id" : "obj-118",
					"maxclass" : "newobj",
					"numinlets" : 1,
					"numoutlets" : 1,
					"outlettype" : [ "" ],
					"patching_rect" : [ 475.0, 860.474525545625511, 81.0, 22.0 ],
					"text" : "prepend pitch"
				}

			}
, 			{
				"box" : 				{
					"id" : "obj-36",
					"maxclass" : "newobj",
					"numinlets" : 2,
					"numoutlets" : 1,
					"outlettype" : [ "float" ],
					"patcher" : 					{
						"fileversion" : 1,
						"appversion" : 						{
							"major" : 9,
							"minor" : 0,
							"revision" : 7,
							"architecture" : "x64",
							"modernui" : 1
						}
,
						"classnamespace" : "box",
						"rect" : [ 604.0, 456.0, 258.0, 516.0 ],
						"gridsize" : [ 15.0, 15.0 ],
						"boxes" : [ 							{
								"box" : 								{
									"id" : "obj-16",
									"maxclass" : "newobj",
									"numinlets" : 2,
									"numoutlets" : 1,
									"outlettype" : [ "float" ],
									"patching_rect" : [ 46.0, 198.0, 40.0, 22.0 ],
									"text" : "* 100."
								}

							}
, 							{
								"box" : 								{
									"id" : "obj-69",
									"maxclass" : "newobj",
									"numinlets" : 1,
									"numoutlets" : 2,
									"outlettype" : [ "bang", "float" ],
									"patching_rect" : [ 108.0, 198.0, 29.5, 22.0 ],
									"text" : "t b f"
								}

							}
, 							{
								"box" : 								{
									"id" : "obj-68",
									"maxclass" : "newobj",
									"numinlets" : 2,
									"numoutlets" : 1,
									"outlettype" : [ "float" ],
									"patching_rect" : [ 46.0, 238.0, 29.5, 22.0 ],
									"text" : "+ 0."
								}

							}
, 							{
								"box" : 								{
									"comment" : "",
									"id" : "obj-1",
									"index" : 2,
									"maxclass" : "inlet",
									"numinlets" : 0,
									"numoutlets" : 1,
									"outlettype" : [ "" ],
									"patching_rect" : [ 108.0, 136.0, 30.0, 30.0 ],
									"varname" : "u222003584[1]"
								}

							}
, 							{
								"box" : 								{
									"id" : "obj-50",
									"maxclass" : "newobj",
									"numinlets" : 2,
									"numoutlets" : 1,
									"outlettype" : [ "float" ],
									"patching_rect" : [ 46.0, 356.39099794626236, 31.0, 22.0 ],
									"text" : "pow"
								}

							}
, 							{
								"box" : 								{
									"id" : "obj-49",
									"maxclass" : "newobj",
									"numinlets" : 1,
									"numoutlets" : 2,
									"outlettype" : [ "int", "float" ],
									"patching_rect" : [ 46.0, 321.39099794626236, 29.5, 22.0 ],
									"text" : "t 2 f"
								}

							}
, 							{
								"box" : 								{
									"id" : "obj-45",
									"maxclass" : "newobj",
									"numinlets" : 2,
									"numoutlets" : 1,
									"outlettype" : [ "float" ],
									"patching_rect" : [ 46.0, 287.39099794626236, 45.0, 22.0 ],
									"text" : "/ 1200."
								}

							}
, 							{
								"box" : 								{
									"comment" : "",
									"id" : "obj-64",
									"index" : 1,
									"maxclass" : "inlet",
									"numinlets" : 0,
									"numoutlets" : 1,
									"outlettype" : [ "" ],
									"patching_rect" : [ 46.0, 136.0, 30.0, 30.0 ],
									"varname" : "u222003584"
								}

							}
, 							{
								"box" : 								{
									"comment" : "",
									"id" : "obj-66",
									"index" : 1,
									"maxclass" : "outlet",
									"numinlets" : 1,
									"numoutlets" : 0,
									"patching_rect" : [ 46.0, 392.0, 30.0, 30.0 ],
									"varname" : "u380001298"
								}

							}
 ],
						"lines" : [ 							{
								"patchline" : 								{
									"destination" : [ "obj-69", 0 ],
									"source" : [ "obj-1", 0 ]
								}

							}
, 							{
								"patchline" : 								{
									"destination" : [ "obj-68", 0 ],
									"source" : [ "obj-16", 0 ]
								}

							}
, 							{
								"patchline" : 								{
									"destination" : [ "obj-49", 0 ],
									"source" : [ "obj-45", 0 ]
								}

							}
, 							{
								"patchline" : 								{
									"destination" : [ "obj-50", 1 ],
									"source" : [ "obj-49", 1 ]
								}

							}
, 							{
								"patchline" : 								{
									"destination" : [ "obj-50", 0 ],
									"source" : [ "obj-49", 0 ]
								}

							}
, 							{
								"patchline" : 								{
									"destination" : [ "obj-66", 0 ],
									"source" : [ "obj-50", 0 ]
								}

							}
, 							{
								"patchline" : 								{
									"destination" : [ "obj-16", 0 ],
									"source" : [ "obj-64", 0 ]
								}

							}
, 							{
								"patchline" : 								{
									"destination" : [ "obj-45", 0 ],
									"source" : [ "obj-68", 0 ]
								}

							}
, 							{
								"patchline" : 								{
									"destination" : [ "obj-68", 1 ],
									"source" : [ "obj-69", 1 ]
								}

							}
, 							{
								"patchline" : 								{
									"destination" : [ "obj-68", 0 ],
									"source" : [ "obj-69", 0 ]
								}

							}
 ]
					}
,
					"patching_rect" : [ 475.0, 827.474525545625511, 85.0, 22.0 ],
					"text" : "p Cents2Ratio"
				}

			}
, 			{
				"box" : 				{
					"fontface" : 0,
					"fontname" : "Ableton Sans Medium",
					"fontsize" : 9.5,
					"id" : "obj-37",
					"maxclass" : "comment",
					"numinlets" : 1,
					"numoutlets" : 0,
					"patching_rect" : [ 471.0, 664.474525545625511, 121.0, 18.0 ],
					"presentation" : 1,
					"presentation_rect" : [ 25.0, 25.0, 138.5, 18.0 ],
					"saved_attribute_attributes" : 					{
						"textcolor" : 						{
							"expression" : "themecolor.live_lcd_title"
						}

					}
,
					"text" : "TRANSPOSE",
					"textcolor" : [ 0.768399306904929, 0.768399117237748, 0.7683991666346, 1.0 ],
					"textjustification" : 1
				}

			}
, 			{
				"box" : 				{
					"fontface" : 0,
					"fontname" : "Ableton Sans Medium",
					"fontsize" : 9.5,
					"id" : "obj-38",
					"maxclass" : "comment",
					"numinlets" : 1,
					"numoutlets" : 0,
					"patching_rect" : [ 779.0, 686.474525545625511, 118.0, 18.0 ],
					"presentation" : 1,
					"presentation_rect" : [ 24.0, 94.0, 88.75, 18.0 ],
					"saved_attribute_attributes" : 					{
						"textcolor" : 						{
							"expression" : "themecolor.live_lcd_title"
						}

					}
,
					"text" : "ENVELOPPE",
					"textcolor" : [ 0.768399306904929, 0.768399117237748, 0.7683991666346, 1.0 ]
				}

			}
, 			{
				"box" : 				{
					"annotation" : "Fine tune pitch in cents.",
					"annotation_name" : "Morph Player - Fine Tune",
					"fontname" : "Ableton Sans Light",
					"id" : "obj-66",
					"maxclass" : "live.dial",
					"numinlets" : 1,
					"numoutlets" : 2,
					"outlettype" : [ "", "float" ],
					"parameter_enable" : 1,
					"patching_rect" : [ 541.0, 762.474525545625511, 29.0, 48.0 ],
					"presentation" : 1,
					"presentation_rect" : [ 117.0, 40.0, 48.0, 48.0 ],
					"saved_attribute_attributes" : 					{
						"valueof" : 						{
							"parameter_annotation_name" : "Morph Player - Fine Tune",
							"parameter_info" : "Fine tune pitch in cents.",
							"parameter_linknames" : 1,
							"parameter_longname" : "Morph - Fine Tune",
							"parameter_mmax" : 50.0,
							"parameter_mmin" : -50.0,
							"parameter_modmode" : 0,
							"parameter_shortname" : "Tune",
							"parameter_type" : 1,
							"parameter_units" : "cts",
							"parameter_unitstyle" : 9
						}

					}
,
					"varname" : "Morph - Fine Tune"
				}

			}
, 			{
				"box" : 				{
					"annotation" : "Change the player's pitch factor.",
					"annotation_name" : "Morph Player - Pitch",
					"fontname" : "Ableton Sans Light",
					"id" : "obj-65",
					"maxclass" : "live.dial",
					"numinlets" : 1,
					"numoutlets" : 2,
					"outlettype" : [ "", "float" ],
					"parameter_enable" : 1,
					"patching_rect" : [ 475.0, 762.474525545625511, 41.0, 48.0 ],
					"presentation" : 1,
					"presentation_rect" : [ 77.0, 40.0, 50.0, 48.0 ],
					"saved_attribute_attributes" : 					{
						"valueof" : 						{
							"parameter_annotation_name" : "Morph Player - Pitch",
							"parameter_info" : "Change the player's pitch factor.",
							"parameter_linknames" : 1,
							"parameter_longname" : "Morph - Pitch",
							"parameter_mmax" : 24.0,
							"parameter_mmin" : -24.0,
							"parameter_modmode" : 0,
							"parameter_shortname" : "Pitch",
							"parameter_type" : 0,
							"parameter_unitstyle" : 7
						}

					}
,
					"varname" : "Morph - Pitch"
				}

			}
, 			{
				"box" : 				{
					"annotation" : "Toggle for looping or one-shot playback modes.",
					"annotation_name" : "Morph Player - PlayMode",
					"automation" : "one-shot",
					"automationon" : "looped",
					"fontname" : "Ableton Sans Light",
					"id" : "obj-62",
					"maxclass" : "live.text",
					"numinlets" : 1,
					"numoutlets" : 2,
					"outlettype" : [ "", "" ],
					"parameter_enable" : 1,
					"patching_rect" : [ 593.0, 698.474525545625511, 71.0, 22.0 ],
					"presentation" : 1,
					"presentation_rect" : [ 90.0, 7.0, 45.0, 18.0 ],
					"saved_attribute_attributes" : 					{
						"valueof" : 						{
							"parameter_annotation_name" : "Morph Player - PlayMode",
							"parameter_enum" : [ "one-shot", "looped" ],
							"parameter_info" : "Toggle for looping or one-shot playback modes.",
							"parameter_linknames" : 1,
							"parameter_longname" : "Morph - Play Mode",
							"parameter_mmax" : 1,
							"parameter_modmode" : 0,
							"parameter_shortname" : "Play Mode",
							"parameter_type" : 2
						}

					}
,
					"text" : "one-shot",
					"texton" : "looped",
					"varname" : "Morph - Play Mode"
				}

			}
, 			{
				"box" : 				{
					"id" : "obj-53",
					"maxclass" : "newobj",
					"numinlets" : 2,
					"numoutlets" : 3,
					"outlettype" : [ "", "", "" ],
					"patcher" : 					{
						"fileversion" : 1,
						"appversion" : 						{
							"major" : 9,
							"minor" : 0,
							"revision" : 7,
							"architecture" : "x64",
							"modernui" : 1
						}
,
						"classnamespace" : "box",
						"rect" : [ 559.0, 274.0, 712.0, 762.0 ],
						"gridsize" : [ 15.0, 15.0 ],
						"boxes" : [ 							{
								"box" : 								{
									"comment" : "",
									"id" : "obj-4",
									"index" : 1,
									"maxclass" : "outlet",
									"numinlets" : 1,
									"numoutlets" : 0,
									"patching_rect" : [ 50.0, 635.0, 30.0, 30.0 ]
								}

							}
, 							{
								"box" : 								{
									"id" : "obj-2",
									"maxclass" : "newobj",
									"numinlets" : 1,
									"numoutlets" : 1,
									"outlettype" : [ "" ],
									"patching_rect" : [ 50.0, 590.0, 75.0, 22.0 ],
									"text" : "prepend env"
								}

							}
, 							{
								"box" : 								{
									"id" : "obj-42",
									"maxclass" : "newobj",
									"numinlets" : 1,
									"numoutlets" : 1,
									"outlettype" : [ "" ],
									"patching_rect" : [ 304.5, 536.5, 72.0, 22.0 ],
									"text" : "prepend set"
								}

							}
, 							{
								"box" : 								{
									"id" : "obj-31",
									"maxclass" : "newobj",
									"numinlets" : 1,
									"numoutlets" : 2,
									"outlettype" : [ "float", "float" ],
									"patching_rect" : [ 263.25, 387.5, 60.5, 22.0 ],
									"text" : "t f f"
								}

							}
, 							{
								"box" : 								{
									"id" : "obj-33",
									"maxclass" : "newobj",
									"numinlets" : 2,
									"numoutlets" : 1,
									"outlettype" : [ "float" ],
									"patching_rect" : [ 304.5, 416.5, 29.5, 22.0 ],
									"text" : "!- 1."
								}

							}
, 							{
								"box" : 								{
									"id" : "obj-34",
									"maxclass" : "newobj",
									"numinlets" : 2,
									"numoutlets" : 1,
									"outlettype" : [ "int" ],
									"patching_rect" : [ 286.5, 308.499953570003527, 29.5, 22.0 ],
									"text" : "+ 1"
								}

							}
, 							{
								"box" : 								{
									"id" : "obj-35",
									"maxclass" : "newobj",
									"numinlets" : 1,
									"numoutlets" : 2,
									"outlettype" : [ "float", "float" ],
									"patching_rect" : [ 263.5, 213.5, 29.5, 22.0 ],
									"text" : "t f f"
								}

							}
, 							{
								"box" : 								{
									"id" : "obj-36",
									"maxclass" : "newobj",
									"numinlets" : 2,
									"numoutlets" : 2,
									"outlettype" : [ "", "" ],
									"patching_rect" : [ 240.5, 351.499953570003527, 42.0, 22.0 ],
									"text" : "gate 2"
								}

							}
, 							{
								"box" : 								{
									"id" : "obj-38",
									"maxclass" : "newobj",
									"numinlets" : 2,
									"numoutlets" : 1,
									"outlettype" : [ "int" ],
									"patching_rect" : [ 286.5, 280.499953570003527, 29.5, 22.0 ],
									"text" : "> 1."
								}

							}
, 							{
								"box" : 								{
									"id" : "obj-39",
									"maxclass" : "newobj",
									"numinlets" : 2,
									"numoutlets" : 1,
									"outlettype" : [ "float" ],
									"patching_rect" : [ 286.5, 253.5, 29.5, 22.0 ],
									"text" : "+ 0."
								}

							}
, 							{
								"box" : 								{
									"id" : "obj-30",
									"maxclass" : "newobj",
									"numinlets" : 1,
									"numoutlets" : 1,
									"outlettype" : [ "" ],
									"patching_rect" : [ 475.5, 536.5, 72.0, 22.0 ],
									"text" : "prepend set"
								}

							}
, 							{
								"box" : 								{
									"id" : "obj-29",
									"maxclass" : "newobj",
									"numinlets" : 1,
									"numoutlets" : 2,
									"outlettype" : [ "float", "float" ],
									"patching_rect" : [ 72.75, 380.5, 60.5, 22.0 ],
									"text" : "t f f"
								}

							}
, 							{
								"box" : 								{
									"id" : "obj-26",
									"maxclass" : "newobj",
									"numinlets" : 2,
									"numoutlets" : 1,
									"outlettype" : [ "float" ],
									"patching_rect" : [ 114.0, 409.5, 29.5, 22.0 ],
									"text" : "!- 1."
								}

							}
, 							{
								"box" : 								{
									"id" : "obj-25",
									"maxclass" : "newobj",
									"numinlets" : 2,
									"numoutlets" : 1,
									"outlettype" : [ "" ],
									"patching_rect" : [ 50.0, 512.099914674034153, 209.5, 22.0 ],
									"text" : "pak f f"
								}

							}
, 							{
								"box" : 								{
									"id" : "obj-24",
									"maxclass" : "newobj",
									"numinlets" : 2,
									"numoutlets" : 1,
									"outlettype" : [ "int" ],
									"patching_rect" : [ 96.0, 301.499953570003527, 29.5, 22.0 ],
									"text" : "+ 1"
								}

							}
, 							{
								"box" : 								{
									"id" : "obj-23",
									"maxclass" : "newobj",
									"numinlets" : 1,
									"numoutlets" : 2,
									"outlettype" : [ "float", "float" ],
									"patching_rect" : [ 73.0, 206.5, 29.5, 22.0 ],
									"text" : "t f f"
								}

							}
, 							{
								"box" : 								{
									"id" : "obj-22",
									"maxclass" : "newobj",
									"numinlets" : 2,
									"numoutlets" : 2,
									"outlettype" : [ "", "" ],
									"patching_rect" : [ 50.0, 344.499953570003527, 42.0, 22.0 ],
									"text" : "gate 2"
								}

							}
, 							{
								"box" : 								{
									"id" : "obj-21",
									"maxclass" : "newobj",
									"numinlets" : 2,
									"numoutlets" : 1,
									"outlettype" : [ "int" ],
									"patching_rect" : [ 96.0, 273.499953570003527, 29.5, 22.0 ],
									"text" : "> 1."
								}

							}
, 							{
								"box" : 								{
									"id" : "obj-20",
									"maxclass" : "newobj",
									"numinlets" : 2,
									"numoutlets" : 1,
									"outlettype" : [ "float" ],
									"patching_rect" : [ 96.0, 246.5, 29.5, 22.0 ],
									"text" : "+ 0."
								}

							}
, 							{
								"box" : 								{
									"comment" : "",
									"id" : "obj-48",
									"index" : 1,
									"maxclass" : "inlet",
									"numinlets" : 0,
									"numoutlets" : 1,
									"outlettype" : [ "" ],
									"patching_rect" : [ 73.0, 41.0, 30.0, 30.0 ]
								}

							}
, 							{
								"box" : 								{
									"comment" : "",
									"id" : "obj-49",
									"index" : 2,
									"maxclass" : "inlet",
									"numinlets" : 0,
									"numoutlets" : 1,
									"outlettype" : [ "" ],
									"patching_rect" : [ 263.5, 41.0, 30.0, 30.0 ]
								}

							}
, 							{
								"box" : 								{
									"comment" : "",
									"id" : "obj-50",
									"index" : 2,
									"maxclass" : "outlet",
									"numinlets" : 1,
									"numoutlets" : 0,
									"patching_rect" : [ 304.5, 575.5, 30.0, 30.0 ]
								}

							}
, 							{
								"box" : 								{
									"comment" : "",
									"id" : "obj-51",
									"index" : 3,
									"maxclass" : "outlet",
									"numinlets" : 1,
									"numoutlets" : 0,
									"patching_rect" : [ 475.5, 575.5, 30.0, 30.0 ]
								}

							}
 ],
						"lines" : [ 							{
								"patchline" : 								{
									"destination" : [ "obj-4", 0 ],
									"source" : [ "obj-2", 0 ]
								}

							}
, 							{
								"patchline" : 								{
									"destination" : [ "obj-21", 0 ],
									"source" : [ "obj-20", 0 ]
								}

							}
, 							{
								"patchline" : 								{
									"destination" : [ "obj-24", 0 ],
									"source" : [ "obj-21", 0 ]
								}

							}
, 							{
								"patchline" : 								{
									"destination" : [ "obj-25", 0 ],
									"source" : [ "obj-22", 0 ]
								}

							}
, 							{
								"patchline" : 								{
									"destination" : [ "obj-29", 0 ],
									"source" : [ "obj-22", 1 ]
								}

							}
, 							{
								"patchline" : 								{
									"destination" : [ "obj-20", 0 ],
									"source" : [ "obj-23", 1 ]
								}

							}
, 							{
								"patchline" : 								{
									"destination" : [ "obj-22", 1 ],
									"source" : [ "obj-23", 0 ]
								}

							}
, 							{
								"patchline" : 								{
									"destination" : [ "obj-22", 0 ],
									"source" : [ "obj-24", 0 ]
								}

							}
, 							{
								"patchline" : 								{
									"destination" : [ "obj-2", 0 ],
									"source" : [ "obj-25", 0 ]
								}

							}
, 							{
								"patchline" : 								{
									"destination" : [ "obj-20", 1 ],
									"midpoints" : [ 123.5, 441.5, 170.75, 441.5, 170.75, 235.5, 116.0, 235.5 ],
									"order" : 2,
									"source" : [ "obj-26", 0 ]
								}

							}
, 							{
								"patchline" : 								{
									"destination" : [ "obj-25", 1 ],
									"order" : 1,
									"source" : [ "obj-26", 0 ]
								}

							}
, 							{
								"patchline" : 								{
									"destination" : [ "obj-30", 0 ],
									"order" : 0,
									"source" : [ "obj-26", 0 ]
								}

							}
, 							{
								"patchline" : 								{
									"destination" : [ "obj-25", 0 ],
									"source" : [ "obj-29", 0 ]
								}

							}
, 							{
								"patchline" : 								{
									"destination" : [ "obj-26", 0 ],
									"source" : [ "obj-29", 1 ]
								}

							}
, 							{
								"patchline" : 								{
									"destination" : [ "obj-51", 0 ],
									"source" : [ "obj-30", 0 ]
								}

							}
, 							{
								"patchline" : 								{
									"destination" : [ "obj-25", 1 ],
									"source" : [ "obj-31", 0 ]
								}

							}
, 							{
								"patchline" : 								{
									"destination" : [ "obj-33", 0 ],
									"source" : [ "obj-31", 1 ]
								}

							}
, 							{
								"patchline" : 								{
									"destination" : [ "obj-25", 0 ],
									"order" : 2,
									"source" : [ "obj-33", 0 ]
								}

							}
, 							{
								"patchline" : 								{
									"destination" : [ "obj-39", 1 ],
									"midpoints" : [ 314.0, 448.5, 361.25, 448.5, 361.25, 242.5, 306.5, 242.5 ],
									"order" : 1,
									"source" : [ "obj-33", 0 ]
								}

							}
, 							{
								"patchline" : 								{
									"destination" : [ "obj-42", 0 ],
									"order" : 0,
									"source" : [ "obj-33", 0 ]
								}

							}
, 							{
								"patchline" : 								{
									"destination" : [ "obj-36", 0 ],
									"source" : [ "obj-34", 0 ]
								}

							}
, 							{
								"patchline" : 								{
									"destination" : [ "obj-36", 1 ],
									"source" : [ "obj-35", 0 ]
								}

							}
, 							{
								"patchline" : 								{
									"destination" : [ "obj-39", 0 ],
									"source" : [ "obj-35", 1 ]
								}

							}
, 							{
								"patchline" : 								{
									"destination" : [ "obj-25", 1 ],
									"source" : [ "obj-36", 0 ]
								}

							}
, 							{
								"patchline" : 								{
									"destination" : [ "obj-31", 0 ],
									"source" : [ "obj-36", 1 ]
								}

							}
, 							{
								"patchline" : 								{
									"destination" : [ "obj-34", 0 ],
									"source" : [ "obj-38", 0 ]
								}

							}
, 							{
								"patchline" : 								{
									"destination" : [ "obj-38", 0 ],
									"source" : [ "obj-39", 0 ]
								}

							}
, 							{
								"patchline" : 								{
									"destination" : [ "obj-50", 0 ],
									"source" : [ "obj-42", 0 ]
								}

							}
, 							{
								"patchline" : 								{
									"destination" : [ "obj-23", 0 ],
									"order" : 1,
									"source" : [ "obj-48", 0 ]
								}

							}
, 							{
								"patchline" : 								{
									"destination" : [ "obj-39", 1 ],
									"order" : 0,
									"source" : [ "obj-48", 0 ]
								}

							}
, 							{
								"patchline" : 								{
									"destination" : [ "obj-20", 1 ],
									"order" : 1,
									"source" : [ "obj-49", 0 ]
								}

							}
, 							{
								"patchline" : 								{
									"destination" : [ "obj-35", 0 ],
									"order" : 0,
									"source" : [ "obj-49", 0 ]
								}

							}
 ]
					}
,
					"patching_rect" : [ 779.0, 776.474525545625511, 74.0, 22.0 ],
					"text" : "p Env"
				}

			}
, 			{
				"box" : 				{
					"annotation" : "These controls set the length over which an envelope will be applied to the playing slice, based on the total length of that slice.",
					"annotation_name" : "Morph Player - Envelope Release",
					"fontname" : "Ableton Sans Light",
					"id" : "obj-40",
					"maxclass" : "live.dial",
					"numinlets" : 1,
					"numoutlets" : 2,
					"outlettype" : [ "", "float" ],
					"parameter_enable" : 1,
					"patching_rect" : [ 833.0, 718.474525545625511, 29.0, 39.0 ],
					"presentation" : 1,
					"presentation_rect" : [ 70.0, 109.0, 42.0, 39.0 ],
					"saved_attribute_attributes" : 					{
						"valueof" : 						{
							"parameter_annotation_name" : "Morph Player - Envelope Release",
							"parameter_exponent" : 2.0,
							"parameter_info" : "These controls set the length over which an envelope will be applied to the playing slice, based on the total length of that slice.",
							"parameter_initial" : [ 0.05 ],
							"parameter_initial_enable" : 1,
							"parameter_linknames" : 1,
							"parameter_longname" : "Morph - Release",
							"parameter_mmax" : 1.0,
							"parameter_modmode" : 0,
							"parameter_shortname" : "Release",
							"parameter_type" : 0,
							"parameter_unitstyle" : 1
						}

					}
,
					"shownumber" : 0,
					"varname" : "Morph - Release"
				}

			}
, 			{
				"box" : 				{
					"annotation" : "These controls set the length over which an envelope will be applied to the playing slice, based on the total length of that slice.",
					"annotation_name" : "Morph Player - Envelope Attack",
					"fontname" : "Ableton Sans Light",
					"id" : "obj-41",
					"maxclass" : "live.dial",
					"numinlets" : 1,
					"numoutlets" : 2,
					"outlettype" : [ "", "float" ],
					"parameter_enable" : 1,
					"patching_rect" : [ 779.0, 718.474525545625511, 29.0, 39.0 ],
					"presentation" : 1,
					"presentation_rect" : [ 28.0, 109.0, 42.0, 39.0 ],
					"saved_attribute_attributes" : 					{
						"valueof" : 						{
							"parameter_annotation_name" : "Morph Player - Envelope Attack",
							"parameter_exponent" : 3.0,
							"parameter_info" : "These controls set the length over which an envelope will be applied to the playing slice, based on the total length of that slice.",
							"parameter_initial" : [ 0.0001 ],
							"parameter_initial_enable" : 1,
							"parameter_linknames" : 1,
							"parameter_longname" : "Morph - Attack",
							"parameter_mmax" : 1.0,
							"parameter_modmode" : 0,
							"parameter_shortname" : "Attack",
							"parameter_type" : 0,
							"parameter_unitstyle" : 1
						}

					}
,
					"shownumber" : 0,
					"varname" : "Morph - Attack"
				}

			}
, 			{
				"box" : 				{
					"angle" : 270.0,
					"bgcolor" : [ 1.0, 1.0, 1.0, 0.2 ],
					"id" : "obj-42",
					"maxclass" : "panel",
					"mode" : 0,
					"numinlets" : 1,
					"numoutlets" : 0,
					"patching_rect" : [ 750.0, 652.474525545625511, 151.0, 172.898102182501816 ],
					"presentation" : 1,
					"presentation_rect" : [ 24.0, 94.0, 89.0, 57.5 ],
					"proportion" : 0.5,
					"rounded" : 4,
					"saved_attribute_attributes" : 					{
						"bgfillcolor" : 						{
							"expression" : ""
						}

					}

				}

			}
, 			{
				"box" : 				{
					"id" : "obj-11",
					"maxclass" : "newobj",
					"numinlets" : 2,
					"numoutlets" : 2,
					"outlettype" : [ "bang", "" ],
					"patching_rect" : [ -91.0, 171.0, 76.0, 22.0 ],
					"text" : "sel 3"
				}

			}
, 			{
				"box" : 				{
					"comment" : "",
					"id" : "obj-30",
					"index" : 2,
					"maxclass" : "inlet",
					"numinlets" : 0,
					"numoutlets" : 1,
					"outlettype" : [ "int" ],
					"patching_rect" : [ -91.0, 111.0, 30.0, 30.0 ]
				}

			}
, 			{
				"box" : 				{
					"id" : "obj-29",
					"maxclass" : "message",
					"numinlets" : 2,
					"numoutlets" : 1,
					"outlettype" : [ "" ],
					"patching_rect" : [ -91.0, 224.0, 55.0, 22.0 ],
					"text" : "mute 0 0"
				}

			}
, 			{
				"box" : 				{
					"id" : "obj-28",
					"maxclass" : "message",
					"numinlets" : 2,
					"numoutlets" : 1,
					"outlettype" : [ "" ],
					"patching_rect" : [ -34.0, 224.0, 55.0, 22.0 ],
					"text" : "mute 0 1"
				}

			}
, 			{
				"box" : 				{
					"id" : "obj-8",
					"maxclass" : "newobj",
					"numinlets" : 1,
					"numoutlets" : 1,
					"outlettype" : [ "" ],
					"patching_rect" : [ -1539.0, 832.0, 54.0, 22.0 ],
					"text" : "deferlow"
				}

			}
, 			{
				"box" : 				{
					"comment" : "",
					"id" : "obj-1",
					"index" : 3,
					"maxclass" : "outlet",
					"numinlets" : 1,
					"numoutlets" : 0,
					"patching_rect" : [ -876.0, 1168.0, 30.0, 30.0 ]
				}

			}
, 			{
				"box" : 				{
					"id" : "obj-25",
					"maxclass" : "newobj",
					"numinlets" : 1,
					"numoutlets" : 0,
					"patching_rect" : [ -1539.0, 863.0, 225.0, 22.0 ],
					"text" : "s #1Mosaique_ServerID_request"
				}

			}
, 			{
				"box" : 				{
					"id" : "obj-172",
					"maxclass" : "newobj",
					"numinlets" : 2,
					"numoutlets" : 1,
					"outlettype" : [ "signal" ],
					"patcher" : 					{
						"fileversion" : 1,
						"appversion" : 						{
							"major" : 9,
							"minor" : 0,
							"revision" : 7,
							"architecture" : "x64",
							"modernui" : 1
						}
,
						"classnamespace" : "box",
						"rect" : [ 59.0, 125.0, 640.0, 480.0 ],
						"gridsize" : [ 15.0, 15.0 ],
						"boxes" : [ 							{
								"box" : 								{
									"id" : "obj-159",
									"maxclass" : "newobj",
									"numinlets" : 2,
									"numoutlets" : 2,
									"outlettype" : [ "signal", "bang" ],
									"patching_rect" : [ 88.181816816329956, 163.636361360549927, 34.0, 22.0 ],
									"text" : "line~"
								}

							}
, 							{
								"box" : 								{
									"id" : "obj-156",
									"maxclass" : "newobj",
									"numinlets" : 2,
									"numoutlets" : 1,
									"outlettype" : [ "" ],
									"patching_rect" : [ 88.181816816329956, 115.909089803695679, 57.0, 22.0 ],
									"text" : "pack f 20"
								}

							}
, 							{
								"box" : 								{
									"id" : "obj-155",
									"maxclass" : "newobj",
									"numinlets" : 1,
									"numoutlets" : 1,
									"outlettype" : [ "" ],
									"patching_rect" : [ 88.181816816329956, 84.0, 39.0, 22.0 ],
									"text" : "dbtoa"
								}

							}
, 							{
								"box" : 								{
									"id" : "obj-149",
									"maxclass" : "newobj",
									"numinlets" : 2,
									"numoutlets" : 1,
									"outlettype" : [ "signal" ],
									"patching_rect" : [ 50.0, 201.818178176879883, 29.5, 22.0 ],
									"text" : "*~"
								}

							}
, 							{
								"box" : 								{
									"comment" : "",
									"id" : "obj-160",
									"index" : 1,
									"maxclass" : "inlet",
									"numinlets" : 0,
									"numoutlets" : 1,
									"outlettype" : [ "signal" ],
									"patching_rect" : [ 49.99999446761322, 40.000041886165718, 30.0, 30.0 ]
								}

							}
, 							{
								"box" : 								{
									"comment" : "",
									"id" : "obj-161",
									"index" : 2,
									"maxclass" : "inlet",
									"numinlets" : 0,
									"numoutlets" : 1,
									"outlettype" : [ "" ],
									"patching_rect" : [ 88.181818467613226, 40.000041886165718, 30.0, 30.0 ]
								}

							}
, 							{
								"box" : 								{
									"comment" : "",
									"id" : "obj-162",
									"index" : 1,
									"maxclass" : "outlet",
									"numinlets" : 1,
									"numoutlets" : 0,
									"patching_rect" : [ 49.99999446761322, 283.818156886165525, 30.0, 30.0 ]
								}

							}
 ],
						"lines" : [ 							{
								"patchline" : 								{
									"destination" : [ "obj-162", 0 ],
									"source" : [ "obj-149", 0 ]
								}

							}
, 							{
								"patchline" : 								{
									"destination" : [ "obj-156", 0 ],
									"source" : [ "obj-155", 0 ]
								}

							}
, 							{
								"patchline" : 								{
									"destination" : [ "obj-159", 0 ],
									"source" : [ "obj-156", 0 ]
								}

							}
, 							{
								"patchline" : 								{
									"destination" : [ "obj-149", 1 ],
									"source" : [ "obj-159", 0 ]
								}

							}
, 							{
								"patchline" : 								{
									"destination" : [ "obj-149", 0 ],
									"source" : [ "obj-160", 0 ]
								}

							}
, 							{
								"patchline" : 								{
									"destination" : [ "obj-155", 0 ],
									"source" : [ "obj-161", 0 ]
								}

							}
 ]
					}
,
					"patching_rect" : [ -1039.0, 1084.0, 41.0, 22.0 ],
					"text" : "p gain"
				}

			}
, 			{
				"box" : 				{
					"id" : "obj-174",
					"maxclass" : "newobj",
					"numinlets" : 2,
					"numoutlets" : 1,
					"outlettype" : [ "signal" ],
					"patcher" : 					{
						"fileversion" : 1,
						"appversion" : 						{
							"major" : 9,
							"minor" : 0,
							"revision" : 7,
							"architecture" : "x64",
							"modernui" : 1
						}
,
						"classnamespace" : "box",
						"rect" : [ 59.0, 125.0, 640.0, 480.0 ],
						"gridsize" : [ 15.0, 15.0 ],
						"boxes" : [ 							{
								"box" : 								{
									"id" : "obj-159",
									"maxclass" : "newobj",
									"numinlets" : 2,
									"numoutlets" : 2,
									"outlettype" : [ "signal", "bang" ],
									"patching_rect" : [ 88.181816816329956, 163.636361360549927, 34.0, 22.0 ],
									"text" : "line~"
								}

							}
, 							{
								"box" : 								{
									"id" : "obj-156",
									"maxclass" : "newobj",
									"numinlets" : 2,
									"numoutlets" : 1,
									"outlettype" : [ "" ],
									"patching_rect" : [ 88.181816816329956, 115.909089803695679, 57.0, 22.0 ],
									"text" : "pack f 20"
								}

							}
, 							{
								"box" : 								{
									"id" : "obj-155",
									"maxclass" : "newobj",
									"numinlets" : 1,
									"numoutlets" : 1,
									"outlettype" : [ "" ],
									"patching_rect" : [ 88.181816816329956, 84.0, 39.0, 22.0 ],
									"text" : "dbtoa"
								}

							}
, 							{
								"box" : 								{
									"id" : "obj-149",
									"maxclass" : "newobj",
									"numinlets" : 2,
									"numoutlets" : 1,
									"outlettype" : [ "signal" ],
									"patching_rect" : [ 50.0, 201.818178176879883, 29.5, 22.0 ],
									"text" : "*~"
								}

							}
, 							{
								"box" : 								{
									"comment" : "",
									"id" : "obj-160",
									"index" : 1,
									"maxclass" : "inlet",
									"numinlets" : 0,
									"numoutlets" : 1,
									"outlettype" : [ "signal" ],
									"patching_rect" : [ 49.99999446761322, 40.000041886165718, 30.0, 30.0 ]
								}

							}
, 							{
								"box" : 								{
									"comment" : "",
									"id" : "obj-161",
									"index" : 2,
									"maxclass" : "inlet",
									"numinlets" : 0,
									"numoutlets" : 1,
									"outlettype" : [ "" ],
									"patching_rect" : [ 88.181818467613226, 40.000041886165718, 30.0, 30.0 ]
								}

							}
, 							{
								"box" : 								{
									"comment" : "",
									"id" : "obj-162",
									"index" : 1,
									"maxclass" : "outlet",
									"numinlets" : 1,
									"numoutlets" : 0,
									"patching_rect" : [ 49.99999446761322, 283.818156886165525, 30.0, 30.0 ]
								}

							}
 ],
						"lines" : [ 							{
								"patchline" : 								{
									"destination" : [ "obj-162", 0 ],
									"source" : [ "obj-149", 0 ]
								}

							}
, 							{
								"patchline" : 								{
									"destination" : [ "obj-156", 0 ],
									"source" : [ "obj-155", 0 ]
								}

							}
, 							{
								"patchline" : 								{
									"destination" : [ "obj-159", 0 ],
									"source" : [ "obj-156", 0 ]
								}

							}
, 							{
								"patchline" : 								{
									"destination" : [ "obj-149", 1 ],
									"source" : [ "obj-159", 0 ]
								}

							}
, 							{
								"patchline" : 								{
									"destination" : [ "obj-149", 0 ],
									"source" : [ "obj-160", 0 ]
								}

							}
, 							{
								"patchline" : 								{
									"destination" : [ "obj-155", 0 ],
									"source" : [ "obj-161", 0 ]
								}

							}
 ]
					}
,
					"patching_rect" : [ -1201.0, 1087.0, 41.0, 22.0 ],
					"text" : "p gain"
				}

			}
, 			{
				"box" : 				{
					"annotation" : "Change the volume of the sound produced",
					"annotation_name" : "Morph Player - Output Gain",
					"fontname" : "Ableton Sans Light Regular",
					"id" : "obj-175",
					"maxclass" : "live.dial",
					"numinlets" : 1,
					"numoutlets" : 2,
					"outlettype" : [ "", "float" ],
					"parameter_enable" : 1,
					"patching_rect" : [ -1641.0, 1009.0, 41.0, 48.0 ],
					"presentation" : 1,
					"presentation_rect" : [ 119.0, 99.0, 40.0, 48.0 ],
					"saved_attribute_attributes" : 					{
						"textcolor" : 						{
							"expression" : ""
						}
,
						"valueof" : 						{
							"parameter_annotation_name" : "Morph Player - Output Gain",
							"parameter_exponent" : 0.36,
							"parameter_info" : "Change the volume of the sound produced",
							"parameter_initial" : [ -6 ],
							"parameter_initial_enable" : 1,
							"parameter_linknames" : 1,
							"parameter_longname" : "Morph - Output Gain",
							"parameter_mmax" : 12.0,
							"parameter_mmin" : -70.0,
							"parameter_modmode" : 0,
							"parameter_shortname" : "Gain",
							"parameter_type" : 0,
							"parameter_unitstyle" : 4
						}

					}
,
					"textcolor" : [ 0.847058823529412, 0.847058823529412, 0.847058823529412, 1.0 ],
					"varname" : "Morph - Output Gain"
				}

			}
, 			{
				"box" : 				{
					"id" : "obj-26",
					"maxclass" : "newobj",
					"numinlets" : 3,
					"numoutlets" : 1,
					"outlettype" : [ "" ],
					"patcher" : 					{
						"fileversion" : 1,
						"appversion" : 						{
							"major" : 9,
							"minor" : 0,
							"revision" : 7,
							"architecture" : "x64",
							"modernui" : 1
						}
,
						"classnamespace" : "box",
						"rect" : [ 96.0, 285.0, 1727.0, 823.0 ],
						"gridsize" : [ 15.0, 15.0 ],
						"boxes" : [ 							{
								"box" : 								{
									"id" : "obj-45",
									"maxclass" : "newobj",
									"numinlets" : 2,
									"numoutlets" : 2,
									"outlettype" : [ "", "" ],
									"patching_rect" : [ 1706.0, 279.5, 72.0, 22.0 ],
									"text" : "route empty"
								}

							}
, 							{
								"box" : 								{
									"id" : "obj-35",
									"maxclass" : "newobj",
									"numinlets" : 2,
									"numoutlets" : 2,
									"outlettype" : [ "", "" ],
									"patching_rect" : [ 1706.0, 247.0, 38.0, 22.0 ],
									"text" : "zl.reg"
								}

							}
, 							{
								"box" : 								{
									"id" : "obj-34",
									"maxclass" : "message",
									"numinlets" : 2,
									"numoutlets" : 1,
									"outlettype" : [ "" ],
									"patching_rect" : [ 2140.0, 324.5, 50.0, 22.0 ]
								}

							}
, 							{
								"box" : 								{
									"id" : "obj-30",
									"maxclass" : "comment",
									"numinlets" : 1,
									"numoutlets" : 0,
									"patching_rect" : [ 147.5, 464.0, 151.0, 20.0 ],
									"text" : "We instantiate a new voice"
								}

							}
, 							{
								"box" : 								{
									"id" : "obj-28",
									"maxclass" : "comment",
									"numinlets" : 1,
									"numoutlets" : 0,
									"patching_rect" : [ 845.0, 464.0, 108.0, 20.0 ],
									"text" : "We free their voice"
								}

							}
, 							{
								"box" : 								{
									"id" : "obj-23",
									"maxclass" : "comment",
									"numinlets" : 1,
									"numoutlets" : 0,
									"patching_rect" : [ 631.0, 348.0, 89.0, 20.0 ],
									"text" : "Previous slices"
								}

							}
, 							{
								"box" : 								{
									"id" : "obj-24",
									"maxclass" : "comment",
									"numinlets" : 1,
									"numoutlets" : 0,
									"patching_rect" : [ 780.0, 348.0, 25.0, 20.0 ],
									"text" : "VS"
								}

							}
, 							{
								"box" : 								{
									"id" : "obj-25",
									"maxclass" : "comment",
									"numinlets" : 1,
									"numoutlets" : 0,
									"patching_rect" : [ 857.5, 348.0, 66.0, 20.0 ],
									"text" : "New slices"
								}

							}
, 							{
								"box" : 								{
									"id" : "obj-22",
									"linecount" : 2,
									"maxclass" : "comment",
									"numinlets" : 1,
									"numoutlets" : 0,
									"patching_rect" : [ 794.5, 420.5, 150.0, 33.0 ],
									"text" : "We get the slices that aren't there anymore"
								}

							}
, 							{
								"box" : 								{
									"id" : "obj-21",
									"maxclass" : "comment",
									"numinlets" : 1,
									"numoutlets" : 0,
									"patching_rect" : [ 413.0, 348.0, 89.0, 20.0 ],
									"text" : "Previous slices"
								}

							}
, 							{
								"box" : 								{
									"id" : "obj-19",
									"maxclass" : "comment",
									"numinlets" : 1,
									"numoutlets" : 0,
									"patching_rect" : [ 336.5, 348.0, 25.0, 20.0 ],
									"text" : "VS"
								}

							}
, 							{
								"box" : 								{
									"id" : "obj-18",
									"maxclass" : "comment",
									"numinlets" : 1,
									"numoutlets" : 0,
									"patching_rect" : [ 231.5, 348.0, 66.0, 20.0 ],
									"text" : "New slices"
								}

							}
, 							{
								"box" : 								{
									"id" : "obj-17",
									"maxclass" : "comment",
									"numinlets" : 1,
									"numoutlets" : 0,
									"patching_rect" : [ 147.5, 427.0, 150.0, 20.0 ],
									"text" : "We get only the new slices"
								}

							}
, 							{
								"box" : 								{
									"id" : "obj-16",
									"linecount" : 2,
									"maxclass" : "comment",
									"numinlets" : 1,
									"numoutlets" : 0,
									"patching_rect" : [ 93.5, 166.0, 150.0, 33.0 ],
									"text" : "New list of nearest neighbours"
								}

							}
, 							{
								"box" : 								{
									"id" : "obj-15",
									"maxclass" : "message",
									"numinlets" : 2,
									"numoutlets" : 1,
									"outlettype" : [ "" ],
									"patching_rect" : [ 252.0, 177.0, 146.0, 22.0 ],
									"text" : "\"1 22\" \"2 33\" \"3 44\" \"4 55\""
								}

							}
, 							{
								"box" : 								{
									"id" : "obj-14",
									"maxclass" : "message",
									"numinlets" : 2,
									"numoutlets" : 1,
									"outlettype" : [ "" ],
									"patching_rect" : [ 440.0, 177.0, 146.0, 22.0 ],
									"text" : "\"1 22\" \"2 33\" \"3 44\" \"4 55\""
								}

							}
, 							{
								"box" : 								{
									"id" : "obj-52",
									"maxclass" : "newobj",
									"numinlets" : 2,
									"numoutlets" : 2,
									"outlettype" : [ "", "" ],
									"patching_rect" : [ 2010.5, 154.5, 77.0, 22.0 ],
									"text" : "route symbol"
								}

							}
, 							{
								"box" : 								{
									"id" : "obj-9",
									"maxclass" : "newobj",
									"numinlets" : 2,
									"numoutlets" : 2,
									"outlettype" : [ "", "" ],
									"patching_rect" : [ 1839.0, 195.5, 143.0, 22.0 ],
									"text" : "zl.group @zlmaxsize 256"
								}

							}
, 							{
								"box" : 								{
									"id" : "obj-20",
									"maxclass" : "newobj",
									"numinlets" : 1,
									"numoutlets" : 4,
									"outlettype" : [ "", "", "", "" ],
									"patching_rect" : [ 1972.0, 125.0, 135.0, 22.0 ],
									"saved_object_attributes" : 									{
										"embed" : 0,
										"precision" : 6
									}
,
									"text" : "coll #1Mosaique_player"
								}

							}
, 							{
								"box" : 								{
									"id" : "obj-11",
									"maxclass" : "newobj",
									"numinlets" : 1,
									"numoutlets" : 4,
									"outlettype" : [ "bang", "bang", "dump", "empty" ],
									"patching_rect" : [ 1706.0, 92.5, 418.0, 22.0 ],
									"text" : "t b b dump empty"
								}

							}
, 							{
								"box" : 								{
									"comment" : "",
									"id" : "obj-5",
									"index" : 3,
									"maxclass" : "inlet",
									"numinlets" : 0,
									"numoutlets" : 1,
									"outlettype" : [ "" ],
									"patching_rect" : [ 1706.0, 46.0, 30.0, 30.0 ]
								}

							}
, 							{
								"box" : 								{
									"id" : "obj-29",
									"linecount" : 3,
									"maxclass" : "comment",
									"numinlets" : 1,
									"numoutlets" : 0,
									"patching_rect" : [ 114.0, 92.0, 192.0, 47.0 ],
									"text" : "<<< To remove the trailing 0 or 1 that is used as a MIDI note flag (not used in the morph player)"
								}

							}
, 							{
								"box" : 								{
									"id" : "obj-27",
									"maxclass" : "newobj",
									"numinlets" : 2,
									"numoutlets" : 2,
									"outlettype" : [ "", "" ],
									"patching_rect" : [ 52.0, 125.0, 47.0, 22.0 ],
									"text" : "zl.nth 1"
								}

							}
, 							{
								"box" : 								{
									"id" : "obj-26",
									"maxclass" : "newobj",
									"numinlets" : 2,
									"numoutlets" : 2,
									"outlettype" : [ "", "" ],
									"patching_rect" : [ 53.0, 92.0, 45.0, 22.0 ],
									"text" : "zl.rot 1"
								}

							}
, 							{
								"box" : 								{
									"id" : "obj-4",
									"maxclass" : "newobj",
									"numinlets" : 1,
									"numoutlets" : 3,
									"outlettype" : [ "", "bang", "clear" ],
									"patching_rect" : [ 1397.0, 211.0, 57.0, 22.0 ],
									"text" : "t l b clear"
								}

							}
, 							{
								"box" : 								{
									"comment" : "",
									"id" : "obj-3",
									"index" : 2,
									"maxclass" : "inlet",
									"numinlets" : 0,
									"numoutlets" : 1,
									"outlettype" : [ "" ],
									"patching_rect" : [ 1397.0, 46.0, 30.0, 30.0 ]
								}

							}
, 							{
								"box" : 								{
									"id" : "obj-61",
									"maxclass" : "newobj",
									"numinlets" : 1,
									"numoutlets" : 1,
									"outlettype" : [ "" ],
									"patching_rect" : [ 506.0, 584.0, 87.0, 22.0 ],
									"text" : "prepend target"
								}

							}
, 							{
								"box" : 								{
									"id" : "obj-58",
									"maxclass" : "newobj",
									"numinlets" : 2,
									"numoutlets" : 2,
									"outlettype" : [ "", "" ],
									"patching_rect" : [ 740.0, 426.0, 47.0, 22.0 ],
									"text" : "zl.iter 1"
								}

							}
, 							{
								"box" : 								{
									"id" : "obj-57",
									"maxclass" : "newobj",
									"numinlets" : 2,
									"numoutlets" : 2,
									"outlettype" : [ "", "" ],
									"patching_rect" : [ 306.0, 426.0, 47.0, 22.0 ],
									"text" : "zl.iter 1"
								}

							}
, 							{
								"box" : 								{
									"id" : "obj-56",
									"maxclass" : "message",
									"numinlets" : 2,
									"numoutlets" : 1,
									"outlettype" : [ "" ],
									"patching_rect" : [ 1416.0, 266.0, 43.0, 22.0 ],
									"text" : "zlclear"
								}

							}
, 							{
								"box" : 								{
									"id" : "obj-47",
									"maxclass" : "newobj",
									"numinlets" : 1,
									"numoutlets" : 1,
									"outlettype" : [ "" ],
									"patching_rect" : [ 306.0, 463.0, 85.0, 22.0 ],
									"text" : "prepend event"
								}

							}
, 							{
								"box" : 								{
									"id" : "obj-42",
									"maxclass" : "newobj",
									"numinlets" : 2,
									"numoutlets" : 2,
									"outlettype" : [ "", "" ],
									"patching_rect" : [ 373.0, 347.0, 38.0, 22.0 ],
									"text" : "zl.reg"
								}

							}
, 							{
								"box" : 								{
									"id" : "obj-40",
									"maxclass" : "newobj",
									"numinlets" : 2,
									"numoutlets" : 2,
									"outlettype" : [ "", "" ],
									"patching_rect" : [ 306.0, 391.0, 86.0, 22.0 ],
									"text" : "zl.unique"
								}

							}
, 							{
								"box" : 								{
									"id" : "obj-39",
									"maxclass" : "newobj",
									"numinlets" : 1,
									"numoutlets" : 2,
									"outlettype" : [ "", "int" ],
									"patching_rect" : [ 306.0, 549.0, 219.0, 22.0 ],
									"text" : "mc.voiceallocator~ @voices 4 @steal 1"
								}

							}
, 							{
								"box" : 								{
									"id" : "obj-38",
									"maxclass" : "newobj",
									"numinlets" : 1,
									"numoutlets" : 1,
									"outlettype" : [ "" ],
									"patching_rect" : [ 740.0, 463.0, 105.0, 22.0 ],
									"text" : "prepend endevent"
								}

							}
, 							{
								"box" : 								{
									"id" : "obj-31",
									"maxclass" : "newobj",
									"numinlets" : 2,
									"numoutlets" : 2,
									"outlettype" : [ "", "" ],
									"patching_rect" : [ 740.0, 347.0, 38.0, 22.0 ],
									"text" : "zl.reg"
								}

							}
, 							{
								"box" : 								{
									"id" : "obj-10",
									"maxclass" : "newobj",
									"numinlets" : 2,
									"numoutlets" : 2,
									"outlettype" : [ "", "" ],
									"patching_rect" : [ 740.0, 391.0, 86.0, 22.0 ],
									"text" : "zl.unique"
								}

							}
, 							{
								"box" : 								{
									"id" : "obj-2",
									"maxclass" : "newobj",
									"numinlets" : 1,
									"numoutlets" : 6,
									"outlettype" : [ "", "", "bang", "", "bang", "" ],
									"patching_rect" : [ 80.0, 211.0, 1149.0, 22.0 ],
									"text" : "t l l b l b l"
								}

							}
, 							{
								"box" : 								{
									"comment" : "",
									"id" : "obj-6",
									"index" : 1,
									"maxclass" : "outlet",
									"numinlets" : 1,
									"numoutlets" : 0,
									"patching_rect" : [ 306.0, 721.0, 30.0, 30.0 ]
								}

							}
, 							{
								"box" : 								{
									"comment" : "",
									"id" : "obj-1",
									"index" : 1,
									"maxclass" : "inlet",
									"numinlets" : 0,
									"numoutlets" : 1,
									"outlettype" : [ "" ],
									"patching_rect" : [ 54.0, 36.0, 30.0, 30.0 ]
								}

							}
 ],
						"lines" : [ 							{
								"patchline" : 								{
									"destination" : [ "obj-26", 0 ],
									"source" : [ "obj-1", 0 ]
								}

							}
, 							{
								"patchline" : 								{
									"destination" : [ "obj-58", 0 ],
									"source" : [ "obj-10", 0 ]
								}

							}
, 							{
								"patchline" : 								{
									"destination" : [ "obj-20", 0 ],
									"source" : [ "obj-11", 2 ]
								}

							}
, 							{
								"patchline" : 								{
									"destination" : [ "obj-35", 1 ],
									"midpoints" : [ 2114.5, 241.4453125, 1734.5, 241.4453125 ],
									"source" : [ "obj-11", 3 ]
								}

							}
, 							{
								"patchline" : 								{
									"destination" : [ "obj-35", 0 ],
									"source" : [ "obj-11", 0 ]
								}

							}
, 							{
								"patchline" : 								{
									"destination" : [ "obj-9", 0 ],
									"source" : [ "obj-11", 1 ]
								}

							}
, 							{
								"patchline" : 								{
									"destination" : [ "obj-2", 0 ],
									"source" : [ "obj-14", 0 ]
								}

							}
, 							{
								"patchline" : 								{
									"destination" : [ "obj-2", 0 ],
									"source" : [ "obj-15", 0 ]
								}

							}
, 							{
								"patchline" : 								{
									"destination" : [ "obj-10", 1 ],
									"source" : [ "obj-2", 5 ]
								}

							}
, 							{
								"patchline" : 								{
									"destination" : [ "obj-31", 0 ],
									"source" : [ "obj-2", 4 ]
								}

							}
, 							{
								"patchline" : 								{
									"destination" : [ "obj-31", 1 ],
									"source" : [ "obj-2", 3 ]
								}

							}
, 							{
								"patchline" : 								{
									"destination" : [ "obj-40", 0 ],
									"order" : 1,
									"source" : [ "obj-2", 1 ]
								}

							}
, 							{
								"patchline" : 								{
									"destination" : [ "obj-42", 0 ],
									"source" : [ "obj-2", 2 ]
								}

							}
, 							{
								"patchline" : 								{
									"destination" : [ "obj-42", 1 ],
									"order" : 0,
									"source" : [ "obj-2", 1 ]
								}

							}
, 							{
								"patchline" : 								{
									"destination" : [ "obj-52", 0 ],
									"source" : [ "obj-20", 1 ]
								}

							}
, 							{
								"patchline" : 								{
									"destination" : [ "obj-27", 0 ],
									"source" : [ "obj-26", 0 ]
								}

							}
, 							{
								"patchline" : 								{
									"destination" : [ "obj-2", 0 ],
									"source" : [ "obj-27", 1 ]
								}

							}
, 							{
								"patchline" : 								{
									"destination" : [ "obj-4", 0 ],
									"source" : [ "obj-3", 0 ]
								}

							}
, 							{
								"patchline" : 								{
									"destination" : [ "obj-10", 0 ],
									"source" : [ "obj-31", 0 ]
								}

							}
, 							{
								"patchline" : 								{
									"destination" : [ "obj-45", 0 ],
									"source" : [ "obj-35", 0 ]
								}

							}
, 							{
								"patchline" : 								{
									"destination" : [ "obj-39", 0 ],
									"source" : [ "obj-38", 0 ]
								}

							}
, 							{
								"patchline" : 								{
									"destination" : [ "obj-6", 0 ],
									"source" : [ "obj-39", 0 ]
								}

							}
, 							{
								"patchline" : 								{
									"destination" : [ "obj-61", 0 ],
									"source" : [ "obj-39", 1 ]
								}

							}
, 							{
								"patchline" : 								{
									"destination" : [ "obj-39", 0 ],
									"midpoints" : [ 1406.5, 530.5, 315.5, 530.5 ],
									"source" : [ "obj-4", 0 ]
								}

							}
, 							{
								"patchline" : 								{
									"destination" : [ "obj-56", 0 ],
									"source" : [ "obj-4", 1 ]
								}

							}
, 							{
								"patchline" : 								{
									"destination" : [ "obj-57", 0 ],
									"source" : [ "obj-40", 0 ]
								}

							}
, 							{
								"patchline" : 								{
									"destination" : [ "obj-40", 1 ],
									"source" : [ "obj-42", 0 ]
								}

							}
, 							{
								"patchline" : 								{
									"color" : [ 0.0, 0.734021186828613, 0.683257400989532, 1.0 ],
									"destination" : [ "obj-31", 1 ],
									"midpoints" : [ 1768.5, 336.5, 768.5, 336.5 ],
									"order" : 0,
									"source" : [ "obj-45", 1 ]
								}

							}
, 							{
								"patchline" : 								{
									"color" : [ 0.0, 0.734021186828613, 0.683257400989532, 1.0 ],
									"destination" : [ "obj-42", 1 ],
									"midpoints" : [ 1768.5, 336.5, 401.5, 336.5 ],
									"order" : 1,
									"source" : [ "obj-45", 1 ]
								}

							}
, 							{
								"patchline" : 								{
									"destination" : [ "obj-56", 0 ],
									"source" : [ "obj-45", 0 ]
								}

							}
, 							{
								"patchline" : 								{
									"destination" : [ "obj-39", 0 ],
									"source" : [ "obj-47", 0 ]
								}

							}
, 							{
								"patchline" : 								{
									"destination" : [ "obj-11", 0 ],
									"source" : [ "obj-5", 0 ]
								}

							}
, 							{
								"patchline" : 								{
									"destination" : [ "obj-9", 0 ],
									"source" : [ "obj-52", 0 ]
								}

							}
, 							{
								"patchline" : 								{
									"color" : [ 0.916625142097473, 0.0, 0.0, 1.0 ],
									"destination" : [ "obj-10", 0 ],
									"midpoints" : [ 1425.5, 378.5, 749.5, 378.5 ],
									"order" : 0,
									"source" : [ "obj-56", 0 ]
								}

							}
, 							{
								"patchline" : 								{
									"color" : [ 0.916625142097473, 0.0, 0.0, 1.0 ],
									"destination" : [ "obj-31", 0 ],
									"order" : 1,
									"source" : [ "obj-56", 0 ]
								}

							}
, 							{
								"patchline" : 								{
									"color" : [ 0.916625142097473, 0.0, 0.0, 1.0 ],
									"destination" : [ "obj-40", 0 ],
									"midpoints" : [ 1425.5, 378.5, 315.5, 378.5 ],
									"order" : 3,
									"source" : [ "obj-56", 0 ]
								}

							}
, 							{
								"patchline" : 								{
									"color" : [ 0.916625142097473, 0.0, 0.0, 1.0 ],
									"destination" : [ "obj-42", 0 ],
									"order" : 2,
									"source" : [ "obj-56", 0 ]
								}

							}
, 							{
								"patchline" : 								{
									"destination" : [ "obj-47", 0 ],
									"source" : [ "obj-57", 0 ]
								}

							}
, 							{
								"patchline" : 								{
									"destination" : [ "obj-38", 0 ],
									"source" : [ "obj-58", 0 ]
								}

							}
, 							{
								"patchline" : 								{
									"destination" : [ "obj-6", 0 ],
									"source" : [ "obj-61", 0 ]
								}

							}
, 							{
								"patchline" : 								{
									"destination" : [ "obj-35", 1 ],
									"midpoints" : [ 1848.5, 241.6484375, 1734.5, 241.6484375 ],
									"source" : [ "obj-9", 0 ]
								}

							}
 ]
					}
,
					"patching_rect" : [ -1201.0, 624.0, 118.0, 22.0 ],
					"text" : "p VoiceManagement"
				}

			}
, 			{
				"box" : 				{
					"color" : [ 1.0, 0.980392156862745, 0.301960784313725, 1.0 ],
					"id" : "obj-184",
					"linecount" : 3,
					"maxclass" : "newobj",
					"numinlets" : 1,
					"numoutlets" : 0,
					"patching_rect" : [ -1405.0, 503.0, 104.0, 49.0 ],
					"text" : "s #1Mosaique_numNeighbours"
				}

			}
, 			{
				"box" : 				{
					"id" : "obj-158",
					"maxclass" : "newobj",
					"numinlets" : 1,
					"numoutlets" : 2,
					"outlettype" : [ "int", "" ],
					"patching_rect" : [ -1138.0, 846.0, 29.5, 22.0 ],
					"text" : "t 0 l"
				}

			}
, 			{
				"box" : 				{
					"id" : "obj-108",
					"maxclass" : "newobj",
					"numinlets" : 1,
					"numoutlets" : 1,
					"outlettype" : [ "" ],
					"patching_rect" : [ -1138.0, 895.0, 87.0, 22.0 ],
					"text" : "prepend target"
				}

			}
, 			{
				"box" : 				{
					"id" : "obj-43",
					"maxclass" : "newobj",
					"numinlets" : 4,
					"numoutlets" : 4,
					"outlettype" : [ "", "", "", "" ],
					"patching_rect" : [ -1201.0, 397.0, 865.0, 22.0 ],
					"text" : "route knearest knearestdist state"
				}

			}
, 			{
				"box" : 				{
					"id" : "obj-32",
					"maxclass" : "live.meter~",
					"numinlets" : 1,
					"numoutlets" : 2,
					"orientation" : 1,
					"outlettype" : [ "float", "int" ],
					"patching_rect" : [ -1003.0, 1124.0, 94.0, 8.0 ],
					"presentation" : 1,
					"presentation_rect" : [ 24.0, 159.0, 140.0, 4.0 ],
					"slidercolor" : [ 0.094525624565048, 0.094525586030663, 0.09452559599708, 1.0 ]
				}

			}
, 			{
				"box" : 				{
					"id" : "obj-34",
					"maxclass" : "live.meter~",
					"numinlets" : 1,
					"numoutlets" : 2,
					"orientation" : 1,
					"outlettype" : [ "float", "int" ],
					"patching_rect" : [ -1170.0, 1124.0, 94.0, 8.0 ],
					"presentation" : 1,
					"presentation_rect" : [ 24.0, 154.0, 140.0, 4.0 ],
					"slidercolor" : [ 0.094525624565048, 0.094525586030663, 0.09452559599708, 1.0 ]
				}

			}
, 			{
				"box" : 				{
					"color" : [ 0.399984061717987, 1.0, 0.400001704692841, 1.0 ],
					"id" : "obj-21",
					"maxclass" : "newobj",
					"numinlets" : 2,
					"numoutlets" : 4,
					"outlettype" : [ "signal", "signal", "", "" ],
					"patching_rect" : [ -1202.0, 962.0, 508.000000000000114, 22.0 ],
					"text" : "poly~ _mosaique.player.morph.poly.maxpat @args #1 @parallel 1"
				}

			}
, 			{
				"box" : 				{
					"id" : "obj-44",
					"maxclass" : "newobj",
					"numinlets" : 1,
					"numoutlets" : 1,
					"outlettype" : [ "" ],
					"patching_rect" : [ -1138.0, 806.0, 90.0, 22.0 ],
					"text" : "prepend voices"
				}

			}
, 			{
				"box" : 				{
					"id" : "obj-9",
					"maxclass" : "newobj",
					"numinlets" : 1,
					"numoutlets" : 3,
					"outlettype" : [ "outputvalue", "bang", "int" ],
					"patching_rect" : [ -1641.0, 429.0, 223.0, 22.0 ],
					"text" : "t outputvalue b i"
				}

			}
, 			{
				"box" : 				{
					"annotation" : "Number of voices of polyphony for the loaded player",
					"annotation_name" : "Morph Player - Number of voices",
					"fontname" : "Ableton Sans Light",
					"fontsize" : 12.0,
					"hint" : "Voices",
					"id" : "obj-10",
					"maxclass" : "live.numbox",
					"numinlets" : 1,
					"numoutlets" : 2,
					"outlettype" : [ "", "float" ],
					"parameter_enable" : 1,
					"patching_rect" : [ -1641.0, 330.0, 66.0, 18.0 ],
					"presentation" : 1,
					"presentation_rect" : [ 136.0, 7.0, 27.0, 18.0 ],
					"saved_attribute_attributes" : 					{
						"valueof" : 						{
							"parameter_annotation_name" : "Morph Player - Number of voices",
							"parameter_info" : "Number of voices of polyphony for the loaded player",
							"parameter_initial" : [ 8.0 ],
							"parameter_initial_enable" : 1,
							"parameter_linknames" : 1,
							"parameter_longname" : "Morph - Voice Count",
							"parameter_mmax" : 64.0,
							"parameter_mmin" : 1.0,
							"parameter_modmode" : 0,
							"parameter_shortname" : "Voices",
							"parameter_type" : 1,
							"parameter_units" : "voices",
							"parameter_unitstyle" : 0
						}

					}
,
					"varname" : "Morph - Voice Count"
				}

			}
, 			{
				"box" : 				{
					"fontface" : 0,
					"fontname" : "Ableton Sans Bold Regular",
					"fontsize" : 16.0,
					"id" : "obj-161",
					"maxclass" : "comment",
					"numinlets" : 1,
					"numoutlets" : 0,
					"patching_rect" : [ -1812.0, 1323.0, 95.0, 26.0 ],
					"presentation" : 1,
					"presentation_linecount" : 7,
					"presentation_rect" : [ 0.0, 12.0, 22.0, 141.0 ],
					"text" : "SAMPLER",
					"textcolor" : [ 0.694117647058824, 0.694117647058824, 0.694117647058824, 1.0 ],
					"textjustification" : 1
				}

			}
, 			{
				"box" : 				{
					"comment" : "",
					"id" : "obj-177",
					"index" : 1,
					"maxclass" : "inlet",
					"numinlets" : 0,
					"numoutlets" : 1,
					"outlettype" : [ "" ],
					"patching_rect" : [ -1201.0, 312.0, 30.0, 30.0 ]
				}

			}
, 			{
				"box" : 				{
					"comment" : "",
					"id" : "obj-171",
					"index" : 2,
					"maxclass" : "outlet",
					"numinlets" : 1,
					"numoutlets" : 0,
					"patching_rect" : [ -1039.0, 1161.0, 30.0, 30.0 ]
				}

			}
, 			{
				"box" : 				{
					"comment" : "",
					"id" : "obj-170",
					"index" : 1,
					"maxclass" : "outlet",
					"numinlets" : 1,
					"numoutlets" : 0,
					"patching_rect" : [ -1201.0, 1161.0, 30.0, 30.0 ]
				}

			}
, 			{
				"box" : 				{
					"angle" : 270.0,
					"background" : 1,
					"bgcolor" : [ 1.0, 1.0, 1.0, 0.2 ],
					"id" : "obj-45",
					"maxclass" : "panel",
					"mode" : 0,
					"numinlets" : 1,
					"numoutlets" : 0,
					"patching_rect" : [ 113.5, 76.25, 151.0, 172.898102182501816 ],
					"presentation" : 1,
					"presentation_rect" : [ 115.0, 94.0, 49.25, 57.5 ],
					"proportion" : 0.5,
					"rounded" : 4,
					"saved_attribute_attributes" : 					{
						"bgfillcolor" : 						{
							"expression" : ""
						}

					}

				}

			}
, 			{
				"box" : 				{
					"angle" : 270.0,
					"background" : 1,
					"bgcolor" : [ 1.0, 1.0, 1.0, 0.2 ],
					"id" : "obj-48",
					"maxclass" : "panel",
					"mode" : 0,
					"numinlets" : 1,
					"numoutlets" : 0,
					"patching_rect" : [ 532.0, 821.474525545625511, 151.0, 172.898102182501816 ],
					"presentation" : 1,
					"presentation_rect" : [ 24.0, 27.0, 139.25, 64.25 ],
					"proportion" : 0.5,
					"rounded" : 4,
					"saved_attribute_attributes" : 					{
						"bgfillcolor" : 						{
							"expression" : ""
						}

					}

				}

			}
 ],
		"lines" : [ 			{
				"patchline" : 				{
					"destination" : [ "obj-9", 0 ],
					"source" : [ "obj-10", 0 ]
				}

			}
, 			{
				"patchline" : 				{
					"destination" : [ "obj-21", 0 ],
					"source" : [ "obj-108", 0 ]
				}

			}
, 			{
				"patchline" : 				{
					"destination" : [ "obj-29", 0 ],
					"order" : 0,
					"source" : [ "obj-11", 0 ]
				}

			}
, 			{
				"patchline" : 				{
					"destination" : [ "obj-5", 0 ],
					"source" : [ "obj-11", 1 ]
				}

			}
, 			{
				"patchline" : 				{
					"destination" : [ "obj-6", 0 ],
					"order" : 1,
					"source" : [ "obj-11", 0 ]
				}

			}
, 			{
				"patchline" : 				{
					"destination" : [ "obj-106", 0 ],
					"midpoints" : [ 484.5, 911.974525545625511, 77.5, 911.974525545625511 ],
					"source" : [ "obj-118", 0 ]
				}

			}
, 			{
				"patchline" : 				{
					"destination" : [ "obj-106", 0 ],
					"midpoints" : [ 602.5, 911.796566818742576, 77.5, 911.796566818742576 ],
					"source" : [ "obj-119", 0 ]
				}

			}
, 			{
				"patchline" : 				{
					"destination" : [ "obj-7", 0 ],
					"source" : [ "obj-12", 0 ]
				}

			}
, 			{
				"patchline" : 				{
					"destination" : [ "obj-119", 0 ],
					"source" : [ "obj-13", 0 ]
				}

			}
, 			{
				"patchline" : 				{
					"destination" : [ "obj-35", 0 ],
					"source" : [ "obj-13", 1 ]
				}

			}
, 			{
				"patchline" : 				{
					"destination" : [ "obj-7", 0 ],
					"source" : [ "obj-13", 2 ]
				}

			}
, 			{
				"patchline" : 				{
					"destination" : [ "obj-15", 0 ],
					"order" : 2,
					"source" : [ "obj-14", 1 ]
				}

			}
, 			{
				"patchline" : 				{
					"destination" : [ "obj-18", 0 ],
					"order" : 1,
					"source" : [ "obj-14", 1 ]
				}

			}
, 			{
				"patchline" : 				{
					"destination" : [ "obj-24", 0 ],
					"order" : 0,
					"source" : [ "obj-14", 1 ]
				}

			}
, 			{
				"patchline" : 				{
					"color" : [ 1.0, 0.671056389808655, 0.0, 1.0 ],
					"destination" : [ "obj-33", 0 ],
					"midpoints" : [ 13.5, 582.474525545625511, 329.5, 582.474525545625511 ],
					"order" : 5,
					"source" : [ "obj-14", 0 ]
				}

			}
, 			{
				"patchline" : 				{
					"color" : [ 1.0, 0.671056389808655, 0.0, 1.0 ],
					"destination" : [ "obj-40", 0 ],
					"midpoints" : [ 13.5, 582.474525545625511, 842.5, 582.474525545625511 ],
					"order" : 0,
					"source" : [ "obj-14", 0 ]
				}

			}
, 			{
				"patchline" : 				{
					"color" : [ 1.0, 0.671056389808655, 0.0, 1.0 ],
					"destination" : [ "obj-41", 0 ],
					"midpoints" : [ 13.5, 582.474525545625511, 788.5, 582.474525545625511 ],
					"order" : 1,
					"source" : [ "obj-14", 0 ]
				}

			}
, 			{
				"patchline" : 				{
					"color" : [ 1.0, 0.671056389808655, 0.0, 1.0 ],
					"destination" : [ "obj-62", 0 ],
					"midpoints" : [ 13.5, 582.474525545625511, 602.5, 582.474525545625511 ],
					"order" : 2,
					"source" : [ "obj-14", 0 ]
				}

			}
, 			{
				"patchline" : 				{
					"color" : [ 1.0, 0.671056389808655, 0.0, 1.0 ],
					"destination" : [ "obj-65", 0 ],
					"midpoints" : [ 13.5, 582.974525545625511, 484.5, 582.974525545625511 ],
					"order" : 4,
					"source" : [ "obj-14", 0 ]
				}

			}
, 			{
				"patchline" : 				{
					"color" : [ 1.0, 0.671056389808655, 0.0, 1.0 ],
					"destination" : [ "obj-66", 0 ],
					"midpoints" : [ 13.5, 582.974525545625511, 550.5, 582.974525545625511 ],
					"order" : 3,
					"source" : [ "obj-14", 0 ]
				}

			}
, 			{
				"patchline" : 				{
					"destination" : [ "obj-106", 0 ],
					"midpoints" : [ 77.5, 910.474525545625511, 77.5, 910.474525545625511 ],
					"source" : [ "obj-15", 0 ]
				}

			}
, 			{
				"patchline" : 				{
					"destination" : [ "obj-108", 0 ],
					"source" : [ "obj-158", 0 ]
				}

			}
, 			{
				"patchline" : 				{
					"destination" : [ "obj-21", 0 ],
					"midpoints" : [ -1118.0, 882.631236910820007, -1192.5, 882.631236910820007 ],
					"source" : [ "obj-158", 1 ]
				}

			}
, 			{
				"patchline" : 				{
					"destination" : [ "obj-65", 0 ],
					"midpoints" : [ 216.5, 794.923576636876533, 192.5, 794.923576636876533, 192.5, 657.923576636876419, 484.5, 657.923576636876419 ],
					"source" : [ "obj-16", 0 ]
				}

			}
, 			{
				"patchline" : 				{
					"destination" : [ "obj-171", 0 ],
					"order" : 1,
					"source" : [ "obj-172", 0 ]
				}

			}
, 			{
				"patchline" : 				{
					"destination" : [ "obj-32", 0 ],
					"order" : 0,
					"source" : [ "obj-172", 0 ]
				}

			}
, 			{
				"patchline" : 				{
					"destination" : [ "obj-170", 0 ],
					"order" : 1,
					"source" : [ "obj-174", 0 ]
				}

			}
, 			{
				"patchline" : 				{
					"destination" : [ "obj-34", 0 ],
					"order" : 0,
					"source" : [ "obj-174", 0 ]
				}

			}
, 			{
				"patchline" : 				{
					"destination" : [ "obj-172", 1 ],
					"midpoints" : [ -1631.5, 1069.35714852809906, -1007.5, 1069.35714852809906 ],
					"order" : 0,
					"source" : [ "obj-175", 0 ]
				}

			}
, 			{
				"patchline" : 				{
					"destination" : [ "obj-174", 1 ],
					"midpoints" : [ -1631.5, 1068.999977827072144, -1169.5, 1068.999977827072144 ],
					"order" : 1,
					"source" : [ "obj-175", 0 ]
				}

			}
, 			{
				"patchline" : 				{
					"destination" : [ "obj-43", 0 ],
					"source" : [ "obj-177", 0 ]
				}

			}
, 			{
				"patchline" : 				{
					"destination" : [ "obj-16", 0 ],
					"source" : [ "obj-18", 0 ]
				}

			}
, 			{
				"patchline" : 				{
					"destination" : [ "obj-106", 0 ],
					"midpoints" : [ 329.5, 912.128455004973148, 77.5, 912.128455004973148 ],
					"source" : [ "obj-19", 0 ]
				}

			}
, 			{
				"patchline" : 				{
					"destination" : [ "obj-1", 0 ],
					"order" : 0,
					"source" : [ "obj-21", 2 ]
				}

			}
, 			{
				"patchline" : 				{
					"destination" : [ "obj-172", 0 ],
					"source" : [ "obj-21", 1 ]
				}

			}
, 			{
				"patchline" : 				{
					"destination" : [ "obj-174", 0 ],
					"source" : [ "obj-21", 0 ]
				}

			}
, 			{
				"patchline" : 				{
					"destination" : [ "obj-26", 2 ],
					"midpoints" : [ -866.5, 1019.609375, -522.4375, 1019.609375, -522.4375, 575.5078125, -1092.5, 575.5078125 ],
					"order" : 1,
					"source" : [ "obj-21", 2 ]
				}

			}
, 			{
				"patchline" : 				{
					"destination" : [ "obj-33", 0 ],
					"source" : [ "obj-23", 0 ]
				}

			}
, 			{
				"patchline" : 				{
					"destination" : [ "obj-23", 0 ],
					"source" : [ "obj-24", 0 ]
				}

			}
, 			{
				"patchline" : 				{
					"destination" : [ "obj-21", 0 ],
					"source" : [ "obj-26", 0 ]
				}

			}
, 			{
				"patchline" : 				{
					"color" : [ 0.841029405593872, 0.912174999713898, 0.0, 1.0 ],
					"destination" : [ "obj-21", 0 ],
					"midpoints" : [ -24.5, 941.5, -1192.5, 941.5 ],
					"source" : [ "obj-28", 0 ]
				}

			}
, 			{
				"patchline" : 				{
					"color" : [ 0.841029405593872, 0.912174999713898, 0.0, 1.0 ],
					"destination" : [ "obj-21", 0 ],
					"midpoints" : [ -81.5, 941.5, -1192.5, 941.5 ],
					"source" : [ "obj-29", 0 ]
				}

			}
, 			{
				"patchline" : 				{
					"destination" : [ "obj-11", 0 ],
					"source" : [ "obj-30", 0 ]
				}

			}
, 			{
				"patchline" : 				{
					"destination" : [ "obj-14", 0 ],
					"source" : [ "obj-31", 0 ]
				}

			}
, 			{
				"patchline" : 				{
					"color" : [ 0.0, 0.725163102149963, 0.857545733451843, 1.0 ],
					"destination" : [ "obj-18", 1 ],
					"order" : 1,
					"source" : [ "obj-33", 0 ]
				}

			}
, 			{
				"patchline" : 				{
					"destination" : [ "obj-19", 0 ],
					"order" : 0,
					"source" : [ "obj-33", 0 ]
				}

			}
, 			{
				"patchline" : 				{
					"destination" : [ "obj-118", 0 ],
					"order" : 0,
					"source" : [ "obj-36", 0 ]
				}

			}
, 			{
				"patchline" : 				{
					"color" : [ 0.0, 0.689182817935944, 0.839228868484497, 1.0 ],
					"destination" : [ "obj-24", 1 ],
					"order" : 1,
					"source" : [ "obj-36", 0 ]
				}

			}
, 			{
				"patchline" : 				{
					"destination" : [ "obj-53", 1 ],
					"source" : [ "obj-40", 0 ]
				}

			}
, 			{
				"patchline" : 				{
					"destination" : [ "obj-53", 0 ],
					"source" : [ "obj-41", 0 ]
				}

			}
, 			{
				"patchline" : 				{
					"destination" : [ "obj-26", 0 ],
					"order" : 1,
					"source" : [ "obj-43", 0 ]
				}

			}
, 			{
				"patchline" : 				{
					"destination" : [ "obj-60", 1 ],
					"source" : [ "obj-43", 1 ]
				}

			}
, 			{
				"patchline" : 				{
					"destination" : [ "obj-60", 0 ],
					"order" : 0,
					"source" : [ "obj-43", 0 ]
				}

			}
, 			{
				"patchline" : 				{
					"destination" : [ "obj-158", 0 ],
					"order" : 0,
					"source" : [ "obj-44", 0 ]
				}

			}
, 			{
				"patchline" : 				{
					"destination" : [ "obj-26", 1 ],
					"midpoints" : [ -1128.5, 837.40625, -996.71484375, 837.40625, -996.71484375, 599.26171875, -1142.0, 599.26171875 ],
					"order" : 1,
					"source" : [ "obj-44", 0 ]
				}

			}
, 			{
				"patchline" : 				{
					"destination" : [ "obj-106", 0 ],
					"source" : [ "obj-5", 1 ]
				}

			}
, 			{
				"patchline" : 				{
					"destination" : [ "obj-28", 0 ],
					"source" : [ "obj-5", 0 ]
				}

			}
, 			{
				"patchline" : 				{
					"destination" : [ "obj-106", 0 ],
					"midpoints" : [ 788.5, 911.568840001611534, 77.5, 911.568840001611534 ],
					"source" : [ "obj-53", 0 ]
				}

			}
, 			{
				"patchline" : 				{
					"destination" : [ "obj-40", 0 ],
					"midpoints" : [ 843.5, 810.04356588055407, 884.238891005516052, 810.04356588055407, 884.238891005516052, 708.543551310550583, 842.5, 708.543551310550583 ],
					"source" : [ "obj-53", 2 ]
				}

			}
, 			{
				"patchline" : 				{
					"destination" : [ "obj-41", 0 ],
					"midpoints" : [ 816.0, 810.04356588055407, 768.738891005516052, 810.04356588055407, 768.738891005516052, 708.543551310550583, 788.5, 708.543551310550583 ],
					"source" : [ "obj-53", 1 ]
				}

			}
, 			{
				"patchline" : 				{
					"destination" : [ "obj-10", 0 ],
					"midpoints" : [ -179.5, 252.5, -1631.5, 252.5 ],
					"source" : [ "obj-6", 0 ]
				}

			}
, 			{
				"patchline" : 				{
					"destination" : [ "obj-21", 1 ],
					"source" : [ "obj-60", 0 ]
				}

			}
, 			{
				"patchline" : 				{
					"destination" : [ "obj-13", 0 ],
					"source" : [ "obj-62", 0 ]
				}

			}
, 			{
				"patchline" : 				{
					"destination" : [ "obj-36", 0 ],
					"source" : [ "obj-65", 0 ]
				}

			}
, 			{
				"patchline" : 				{
					"destination" : [ "obj-36", 1 ],
					"source" : [ "obj-66", 0 ]
				}

			}
, 			{
				"patchline" : 				{
					"destination" : [ "obj-106", 0 ],
					"midpoints" : [ 721.5, 912.99002746203405, 77.5, 912.99002746203405 ],
					"source" : [ "obj-7", 0 ]
				}

			}
, 			{
				"patchline" : 				{
					"destination" : [ "obj-25", 0 ],
					"source" : [ "obj-8", 0 ]
				}

			}
, 			{
				"patchline" : 				{
					"destination" : [ "obj-175", 0 ],
					"midpoints" : [ -1631.5, 553.999977827072144, -1631.5, 553.999977827072144 ],
					"order" : 1,
					"source" : [ "obj-9", 0 ]
				}

			}
, 			{
				"patchline" : 				{
					"destination" : [ "obj-184", 0 ],
					"order" : 1,
					"source" : [ "obj-9", 2 ]
				}

			}
, 			{
				"patchline" : 				{
					"color" : [ 0.993020415306091, 0.610312938690186, 0.034082073718309, 1.0 ],
					"destination" : [ "obj-31", 0 ],
					"order" : 0,
					"source" : [ "obj-9", 0 ]
				}

			}
, 			{
				"patchline" : 				{
					"destination" : [ "obj-44", 0 ],
					"midpoints" : [ -1427.5, 801.0, -1128.5, 801.0 ],
					"order" : 0,
					"source" : [ "obj-9", 2 ]
				}

			}
, 			{
				"patchline" : 				{
					"destination" : [ "obj-8", 0 ],
					"source" : [ "obj-9", 1 ]
				}

			}
 ]
	}

}
