{
	"patcher" : 	{
		"fileversion" : 1,
		"appversion" : 		{
			"major" : 8,
			"minor" : 6,
			"revision" : 0,
			"architecture" : "x64",
			"modernui" : 1
		}
,
		"classnamespace" : "box",
		"rect" : [ 34.0, 100.0, 1316.0, 983.0 ],
		"bglocked" : 0,
		"openinpresentation" : 1,
		"default_fontsize" : 12.0,
		"default_fontface" : 0,
		"default_fontname" : "Arial",
		"gridonopen" : 1,
		"gridsize" : [ 15.0, 15.0 ],
		"gridsnaponopen" : 1,
		"objectsnaponopen" : 1,
		"statusbarvisible" : 2,
		"toolbarvisible" : 1,
		"lefttoolbarpinned" : 0,
		"toptoolbarpinned" : 0,
		"righttoolbarpinned" : 0,
		"bottomtoolbarpinned" : 0,
		"toolbars_unpinned_last_save" : 0,
		"tallnewobj" : 0,
		"boxanimatetime" : 200,
		"enablehscroll" : 1,
		"enablevscroll" : 1,
		"devicewidth" : 0.0,
		"description" : "",
		"digest" : "",
		"tags" : "",
		"style" : "",
		"subpatcher_template" : "",
		"assistshowspatchername" : 0,
		"boxes" : [ 			{
				"box" : 				{
					"id" : "obj-10",
					"maxclass" : "newobj",
					"numinlets" : 1,
					"numoutlets" : 0,
					"patching_rect" : [ 341.0, 314.0, 109.0, 22.0 ],
					"text" : "s osc_player_state"
				}

			}
, 			{
				"box" : 				{
					"id" : "obj-8",
					"maxclass" : "newobj",
					"numinlets" : 2,
					"numoutlets" : 2,
					"outlettype" : [ "", "" ],
					"patching_rect" : [ 182.0, 359.0, 205.0, 22.0 ],
					"text" : "route /mosaique/server/dimensions/z"
				}

			}
, 			{
				"box" : 				{
					"id" : "obj-7",
					"maxclass" : "newobj",
					"numinlets" : 2,
					"numoutlets" : 2,
					"outlettype" : [ "", "" ],
					"patching_rect" : [ 108.0, 314.0, 205.0, 22.0 ],
					"text" : "route /mosaique/server/dimensions/y"
				}

			}
, 			{
				"box" : 				{
					"id" : "obj-20",
					"maxclass" : "comment",
					"numinlets" : 1,
					"numoutlets" : 0,
					"patching_rect" : [ 145.714304387569427, 144.761923313140869, 150.0, 20.0 ],
					"presentation" : 1,
					"presentation_rect" : [ 121.709618488947569, 64.0, 37.0, 20.0 ],
					"text" : "State"
				}

			}
, 			{
				"box" : 				{
					"id" : "obj-9",
					"ignoreclick" : 1,
					"maxclass" : "live.toggle",
					"numinlets" : 1,
					"numoutlets" : 1,
					"outlettype" : [ "" ],
					"parameter_enable" : 1,
					"patching_rect" : [ 254.0, 265.0, 15.0, 15.0 ],
					"presentation" : 1,
					"presentation_rect" : [ 125.085903644561768, 84.020613849163055, 30.247429688771575, 30.476194381713867 ],
					"saved_attribute_attributes" : 					{
						"valueof" : 						{
							"parameter_enum" : [ "off", "on" ],
							"parameter_linknames" : 1,
							"parameter_longname" : "---Mosaique_OSC_state",
							"parameter_mmax" : 1,
							"parameter_shortname" : "OSC_state",
							"parameter_type" : 2
						}

					}
,
					"varname" : "---Mosaique_OSC_state"
				}

			}
, 			{
				"box" : 				{
					"id" : "obj-4",
					"maxclass" : "newobj",
					"numinlets" : 2,
					"numoutlets" : 2,
					"outlettype" : [ "", "" ],
					"patching_rect" : [ 254.0, 220.0, 161.0, 22.0 ],
					"text" : "route /mosaique/server/state"
				}

			}
, 			{
				"box" : 				{
					"fontname" : "Avenir Black",
					"id" : "obj-3",
					"maxclass" : "comment",
					"numinlets" : 1,
					"numoutlets" : 0,
					"patching_rect" : [ 445.0, 25.0, 89.0, 23.0 ],
					"presentation" : 1,
					"presentation_rect" : [ 7.0, 14.0, 89.0, 23.0 ],
					"text" : "OSC port",
					"textcolor" : [ 1.0, 1.0, 1.0, 1.0 ]
				}

			}
, 			{
				"box" : 				{
					"fontname" : "Avenir Black",
					"id" : "obj-6",
					"maxclass" : "comment",
					"numinlets" : 1,
					"numoutlets" : 0,
					"patching_rect" : [ 445.0, 59.0, 122.0, 23.0 ],
					"presentation" : 1,
					"presentation_rect" : [ 8.333333333333343, 39.0, 147.0, 23.0 ],
					"text" : "/mosaique/server/"
				}

			}
, 			{
				"box" : 				{
					"id" : "obj-16",
					"maxclass" : "newobj",
					"numinlets" : 3,
					"numoutlets" : 1,
					"outlettype" : [ "" ],
					"patching_rect" : [ 34.0, 499.0, 68.0, 22.0 ],
					"text" : "pak 0. 0. 0."
				}

			}
, 			{
				"box" : 				{
					"id" : "obj-15",
					"ignoreclick" : 1,
					"maxclass" : "live.dial",
					"numinlets" : 1,
					"numoutlets" : 2,
					"outlettype" : [ "", "float" ],
					"parameter_enable" : 1,
					"parameter_mappable" : 0,
					"patching_rect" : [ 182.0, 430.0, 27.0, 54.0 ],
					"presentation" : 1,
					"presentation_rect" : [ 87.559268098647593, 68.0, 27.0, 54.0 ],
					"saved_attribute_attributes" : 					{
						"valueof" : 						{
							"parameter_initial" : [ 0 ],
							"parameter_initial_enable" : 1,
							"parameter_linknames" : 1,
							"parameter_longname" : "---Mosaique_OSC_z",
							"parameter_mmax" : 1.0,
							"parameter_mmin" : -1.0,
							"parameter_modmode" : 2,
							"parameter_shortname" : "Z",
							"parameter_type" : 0,
							"parameter_unitstyle" : 1
						}

					}
,
					"triangle" : 1,
					"varname" : "---Mosaique_OSC_z"
				}

			}
, 			{
				"box" : 				{
					"id" : "obj-13",
					"ignoreclick" : 1,
					"maxclass" : "live.dial",
					"numinlets" : 1,
					"numoutlets" : 2,
					"outlettype" : [ "", "float" ],
					"parameter_enable" : 1,
					"parameter_mappable" : 0,
					"patching_rect" : [ 108.0, 434.0, 27.0, 54.0 ],
					"presentation" : 1,
					"presentation_rect" : [ 49.779634049323796, 68.0, 27.0, 54.0 ],
					"saved_attribute_attributes" : 					{
						"valueof" : 						{
							"parameter_initial" : [ 0 ],
							"parameter_initial_enable" : 1,
							"parameter_linknames" : 1,
							"parameter_longname" : "---Mosaique_OSC_y",
							"parameter_mmax" : 1.0,
							"parameter_mmin" : -1.0,
							"parameter_modmode" : 2,
							"parameter_shortname" : "Y",
							"parameter_type" : 0,
							"parameter_unitstyle" : 1
						}

					}
,
					"triangle" : 1,
					"varname" : "---Mosaique_OSC_y"
				}

			}
, 			{
				"box" : 				{
					"id" : "obj-2",
					"ignoreclick" : 1,
					"maxclass" : "live.dial",
					"numinlets" : 1,
					"numoutlets" : 2,
					"outlettype" : [ "", "float" ],
					"parameter_enable" : 1,
					"parameter_mappable" : 0,
					"patching_rect" : [ 34.0, 430.0, 27.0, 54.0 ],
					"presentation" : 1,
					"presentation_rect" : [ 12.0, 68.0, 27.0, 54.0 ],
					"saved_attribute_attributes" : 					{
						"valueof" : 						{
							"parameter_initial" : [ 0 ],
							"parameter_initial_enable" : 1,
							"parameter_linknames" : 1,
							"parameter_longname" : "---Mosaique_OSC_x",
							"parameter_mmax" : 1.0,
							"parameter_mmin" : -1.0,
							"parameter_modmode" : 2,
							"parameter_shortname" : "X",
							"parameter_type" : 0,
							"parameter_unitstyle" : 1
						}

					}
,
					"triangle" : 1,
					"varname" : "---Mosaique_OSC_x"
				}

			}
, 			{
				"box" : 				{
					"id" : "obj-19",
					"maxclass" : "newobj",
					"numinlets" : 2,
					"numoutlets" : 1,
					"outlettype" : [ "int" ],
					"patching_rect" : [ 34.0, 89.0, 29.5, 22.0 ],
					"text" : "i"
				}

			}
, 			{
				"box" : 				{
					"appearance" : 4,
					"id" : "obj-14",
					"maxclass" : "live.numbox",
					"numinlets" : 1,
					"numoutlets" : 2,
					"outlettype" : [ "", "float" ],
					"parameter_enable" : 1,
					"parameter_mappable" : 0,
					"patching_rect" : [ 34.0, 61.0, 44.0, 15.0 ],
					"presentation" : 1,
					"presentation_rect" : [ 124.666666666666671, 18.0, 47.333333333333329, 15.0 ],
					"saved_attribute_attributes" : 					{
						"valueof" : 						{
							"parameter_enum" : [ "0", "1" ],
							"parameter_initial" : [ 15048.0 ],
							"parameter_initial_enable" : 1,
							"parameter_invisible" : 1,
							"parameter_linknames" : 1,
							"parameter_longname" : "---MosaiqueServer_OSC_Port[1]",
							"parameter_mmax" : 32000.0,
							"parameter_shortname" : "OSC Port",
							"parameter_type" : 0,
							"parameter_units" : "Port",
							"parameter_unitstyle" : 0
						}

					}
,
					"textjustification" : 0,
					"varname" : "---MosaiqueServer_OSC_Port"
				}

			}
, 			{
				"box" : 				{
					"id" : "obj-12",
					"maxclass" : "newobj",
					"numinlets" : 2,
					"numoutlets" : 2,
					"outlettype" : [ "", "" ],
					"patching_rect" : [ 34.0, 263.0, 205.0, 22.0 ],
					"text" : "route /mosaique/server/dimensions/x"
				}

			}
, 			{
				"box" : 				{
					"id" : "obj-36",
					"maxclass" : "newobj",
					"numinlets" : 1,
					"numoutlets" : 1,
					"outlettype" : [ "" ],
					"patching_rect" : [ 34.0, 125.0, 77.0, 22.0 ],
					"text" : "prepend port"
				}

			}
, 			{
				"box" : 				{
					"id" : "obj-34",
					"maxclass" : "newobj",
					"numinlets" : 1,
					"numoutlets" : 1,
					"outlettype" : [ "" ],
					"patching_rect" : [ 34.0, 165.0, 155.0, 22.0 ],
					"text" : "udpreceive 15048 @quiet 1"
				}

			}
, 			{
				"box" : 				{
					"id" : "obj-1",
					"maxclass" : "newobj",
					"numinlets" : 0,
					"numoutlets" : 1,
					"outlettype" : [ "" ],
					"patching_rect" : [ 34.0, 25.0, 169.0, 22.0 ],
					"text" : "r #1Mosaique_Loadbang"
				}

			}
, 			{
				"box" : 				{
					"comment" : "",
					"id" : "obj-5",
					"index" : 1,
					"maxclass" : "outlet",
					"numinlets" : 1,
					"numoutlets" : 0,
					"patching_rect" : [ 34.0, 538.0, 30.0, 30.0 ]
				}

			}
 ],
		"lines" : [ 			{
				"patchline" : 				{
					"destination" : [ "obj-14", 0 ],
					"source" : [ "obj-1", 0 ]
				}

			}
, 			{
				"patchline" : 				{
					"destination" : [ "obj-2", 0 ],
					"source" : [ "obj-12", 0 ]
				}

			}
, 			{
				"patchline" : 				{
					"destination" : [ "obj-16", 1 ],
					"source" : [ "obj-13", 0 ]
				}

			}
, 			{
				"patchline" : 				{
					"destination" : [ "obj-19", 0 ],
					"source" : [ "obj-14", 0 ]
				}

			}
, 			{
				"patchline" : 				{
					"destination" : [ "obj-16", 2 ],
					"source" : [ "obj-15", 0 ]
				}

			}
, 			{
				"patchline" : 				{
					"destination" : [ "obj-5", 0 ],
					"source" : [ "obj-16", 0 ]
				}

			}
, 			{
				"patchline" : 				{
					"destination" : [ "obj-36", 0 ],
					"source" : [ "obj-19", 0 ]
				}

			}
, 			{
				"patchline" : 				{
					"destination" : [ "obj-16", 0 ],
					"source" : [ "obj-2", 0 ]
				}

			}
, 			{
				"patchline" : 				{
					"destination" : [ "obj-12", 0 ],
					"order" : 3,
					"source" : [ "obj-34", 0 ]
				}

			}
, 			{
				"patchline" : 				{
					"destination" : [ "obj-4", 0 ],
					"order" : 0,
					"source" : [ "obj-34", 0 ]
				}

			}
, 			{
				"patchline" : 				{
					"destination" : [ "obj-7", 0 ],
					"order" : 2,
					"source" : [ "obj-34", 0 ]
				}

			}
, 			{
				"patchline" : 				{
					"destination" : [ "obj-8", 0 ],
					"order" : 1,
					"source" : [ "obj-34", 0 ]
				}

			}
, 			{
				"patchline" : 				{
					"destination" : [ "obj-34", 0 ],
					"source" : [ "obj-36", 0 ]
				}

			}
, 			{
				"patchline" : 				{
					"destination" : [ "obj-9", 0 ],
					"source" : [ "obj-4", 0 ]
				}

			}
, 			{
				"patchline" : 				{
					"destination" : [ "obj-13", 0 ],
					"source" : [ "obj-7", 0 ]
				}

			}
, 			{
				"patchline" : 				{
					"destination" : [ "obj-15", 0 ],
					"source" : [ "obj-8", 0 ]
				}

			}
, 			{
				"patchline" : 				{
					"destination" : [ "obj-10", 0 ],
					"source" : [ "obj-9", 0 ]
				}

			}
 ],
		"saved_attribute_attributes" : 		{
			"default_plcolor" : 			{
				"expression" : ""
			}

		}

	}

}
